<?xml version="1.0" encoding="UTF-8"?>
<!DOCTYPE svg PUBLIC "-//W3C//DTD SVG 1.1//EN" "http://www.w3.org/Graphics/SVG/1.1/DTD/svg11.dtd">
<!-- Creator: CorelDRAW 2020 (64-Bit) -->
<svg xmlns="http://www.w3.org/2000/svg" xml:space="preserve" width="118px" height="118px" version="1.1" style="shape-rendering:geometricPrecision; text-rendering:geometricPrecision; image-rendering:optimizeQuality; fill-rule:evenodd; clip-rule:evenodd"
viewBox="0 0 118 118"
 xmlns:xlink="http://www.w3.org/1999/xlink"
 xmlns:xodm="http://www.corel.com/coreldraw/odm/2003">
 <defs>
  <style type="text/css">
   <![CDATA[
    .fil0 {fill:white}
    .fil1 {fill:red;fill-rule:nonzero}
   ]]>
  </style>
 </defs>
 <g id="Layer_x0020_1">
  <metadata id="CorelCorpID_0Corel-Layer"/>
  <g id="_2470129366576">
   <circle class="fil0" cx="58.06" cy="59.94" r="49.45"/>
   <path class="fil1" d="M58.06 0.94c-32.54,0 -59,26.47 -59,59 0,32.54 26.46,59 59,59 32.53,0 59,-26.46 59,-59 0,-32.53 -26.47,-59 -59,-59zm17.95 35.92l-8.44 0c-4.97,0 -6.95,1.16 -6.95,4.63l0 8.19 15.39 0 -2.56 12.83 -12.83 0 0 33.35 -15.39 0 0 -33.35 -7.7 0 0 -12.83 7.7 0 0 -7.11c0,-10.84 4.33,-18.54 16.88,-18.54 6.73,0 13.9,2.57 13.9,2.57l0 10.26 0 0z"/>
  </g>
 </g>
</svg>
