<?xml version="1.0" encoding="UTF-8"?>
<!DOCTYPE svg PUBLIC "-//W3C//DTD SVG 1.1//EN" "http://www.w3.org/Graphics/SVG/1.1/DTD/svg11.dtd">
<!-- Creator: CorelDRAW 2020 (64-Bit) -->
<svg xmlns="http://www.w3.org/2000/svg" xml:space="preserve" width="1004px" height="118px" version="1.1" style="shape-rendering:geometricPrecision; text-rendering:geometricPrecision; image-rendering:optimizeQuality; fill-rule:evenodd; clip-rule:evenodd"
viewBox="0 0 1004 118.09"
 xmlns:xlink="http://www.w3.org/1999/xlink"
 xmlns:xodm="http://www.corel.com/coreldraw/odm/2003">
 <defs>
  <style type="text/css">
   <![CDATA[
    .fil0 {fill:black;fill-rule:nonzero}
    .fil1 {fill:red;fill-rule:nonzero}
   ]]>
  </style>
 </defs>
 <g id="Layer_x0020_1">
  <metadata id="CorelCorpID_0Corel-Layer"/>
  <g id="_2222789309600">
   <path class="fil0" d="M100.85 45.23c0,-7.65 1.96,-13.57 5.87,-17.77 3.92,-4.19 9.57,-6.28 16.95,-6.28 7.38,0 13.03,2.09 16.95,6.28 3.92,4.2 5.88,10.12 5.88,17.77l0 49.75c0,7.65 -1.96,13.57 -5.88,17.77 -3.92,4.19 -9.57,6.28 -16.95,6.28 -7.38,0 -13.03,-2.09 -16.95,-6.28 -3.91,-4.2 -5.87,-10.12 -5.87,-17.77l0 -49.75zm15.03 50.71c0,6.28 2.6,9.43 7.79,9.43 5.19,0 7.79,-3.15 7.79,-9.43l0 -51.66c0,-6.29 -2.6,-9.44 -7.79,-9.44 -5.19,0 -7.79,3.15 -7.79,9.44l0 51.66zm47.13 22l0 -95.67 15.04 0 0 41 17.08 0 0 -41 15.3 0 0 95.67 -15.3 0 0 -41 -17.08 0 0 41 -15.04 0zm60.93 -13.53c2.46,0 4.3,-0.21 5.54,-0.62 1.23,-0.41 2.13,-1.32 2.73,-2.73 0.59,-1.41 0.93,-3.58 1.02,-6.49l2.47 -72.3 42.5 0 0 95.67 -15.31 0 0 -82 -13.12 0 -1.64 57.81c-0.27,8.75 -2.1,14.99 -5.47,18.72 -3.36,3.74 -8.83,5.61 -16.4,5.61l-2.32 0 0 -13.67 0 0zm106.03 13.53l-2.59 -17.36 -18.46 0 -2.59 17.36 -13.8 0 15.3 -95.67 22 0 15.32 95.67 -15.18 0 0 0zm-4.65 -30.34l-7.23 -48.38 -7.25 48.38 14.48 0zm73.65 -86.65c0,4.74 -1.37,8.45 -4.1,11.14 -2.73,2.69 -6.7,4.03 -11.9,4.03 -5.1,0 -8.94,-1.32 -11.54,-3.96 -2.6,-2.65 -3.99,-6.38 -4.17,-11.21l9.3 0c0.17,2.46 0.77,4.12 1.77,4.99 1.01,0.87 2.55,1.29 4.64,1.29 2.19,0 3.83,-0.45 4.93,-1.36 1.09,-0.91 1.73,-2.55 1.91,-4.92l9.16 0 0 0zm-5.88 49.61l0 67.38 13.53 0 0 -95.67 -16.53 0 -12.31 39.49 -5.46 21.05 0 -60.54 -13.4 0 0 95.67 15.45 0 12.57 -43.87 6.15 -23.51 0 0zm31.27 67.38l0 -95.67 15.04 0 0 41 17.08 0 0 -41 15.31 0 0 95.67 -15.31 0 0 -41 -17.08 0 0 41 -15.04 0zm80.21 -29.39l0 29.39 -15.04 0 0 -95.67 15.04 0 0 41.68 19.68 -41.68 15.04 0 -20.91 42.64 20.91 53.03 -15.45 0 -14.62 -38.13 -4.65 8.74zm81.85 29.39l-2.61 -17.36 -18.45 0 -2.59 17.36 -13.8 0 15.3 -95.67 22 0 15.31 95.67 -15.16 0zm-4.66 -30.34l-7.24 -48.38 -7.24 48.38 14.48 0zm62.58 -41.82c0,-4.1 -0.67,-6.95 -1.98,-8.55 -1.33,-1.59 -3.26,-2.39 -5.81,-2.39 -5.29,0 -7.93,3.15 -7.93,9.44l0 7.78 -13.81 0 0 -7.1c0,-7.75 1.88,-13.64 5.61,-17.7 3.73,-4.05 9.25,-6.08 16.54,-6.08 7.28,0 12.84,2.07 16.67,6.22 3.82,4.14 5.74,10.08 5.74,17.83l0 2.46c0,5.2 -0.87,9.41 -2.6,12.64 -1.73,3.24 -4.37,5.58 -7.92,7.04 7.01,3.1 10.52,9.8 10.52,20.1l0 7.51c0,7.75 -1.92,13.69 -5.74,17.83 -3.83,4.15 -9.39,6.22 -16.67,6.22 -7.29,0 -12.85,-2.07 -16.68,-6.22 -3.82,-4.14 -5.74,-10.08 -5.74,-17.83l0 -10.52 14.21 0 0 11.48c0,6.28 2.6,9.43 7.79,9.43 2.56,0 4.49,-0.8 5.82,-2.4 1.31,-1.59 1.98,-4.39 1.98,-8.4l0 -7.52c0,-4.37 -0.78,-7.49 -2.33,-9.36 -1.55,-1.87 -4.05,-2.8 -7.51,-2.8l-3.69 0 0 -13.67 4.51 0c3,0 5.25,-0.77 6.76,-2.32 1.5,-1.55 2.26,-4.14 2.26,-7.79l0 -5.33 0 0zm31.95 72.16l0 -95.67 13.39 0 0 60.54 5.48 -21.05 12.29 -39.49 16.54 0 0 95.67 -13.53 0 0 -67.38 -6.15 23.51 -12.57 43.87 -15.45 0zm65.17 0l0 -95.67 15.04 0 0 41 17.07 0 0 -41 15.32 0 0 95.67 -15.32 0 0 -41 -17.07 0 0 41 -15.04 0zm63.94 -72.71c0,-7.65 1.96,-13.57 5.88,-17.77 3.92,-4.19 9.56,-6.28 16.94,-6.28 7.38,0 13.03,2.09 16.95,6.28 3.92,4.2 5.88,10.12 5.88,17.77l0 49.75c0,7.65 -1.96,13.57 -5.88,17.77 -3.92,4.19 -9.57,6.28 -16.95,6.28 -7.38,0 -13.02,-2.09 -16.94,-6.28 -3.92,-4.2 -5.88,-10.12 -5.88,-17.77l0 -49.75zm15.03 50.71c0,6.28 2.59,9.43 7.79,9.43 5.19,0 7.79,-3.15 7.79,-9.43l0 -51.66c0,-6.29 -2.6,-9.44 -7.79,-9.44 -5.2,0 -7.79,3.15 -7.79,9.44l0 51.66z"/>
   <path class="fil1" d="M882.04 117.94l-14.48 0 0 -14.49 14.48 0 0 14.49zm17.89 -95.67l42.09 0 0 13.67 -27.06 0 0 24.46 8.75 0c7.46,0 13.11,2.03 16.94,6.08 3.83,4.06 5.74,9.91 5.74,17.56l0 10.26c0,7.65 -1.91,13.51 -5.74,17.56 -3.83,4.05 -9.48,6.08 -16.94,6.08l-23.78 0 0 -95.67 0 0zm23.78 82c2.55,0 4.46,-0.68 5.74,-2.05 1.27,-1.36 1.91,-3.69 1.91,-6.97l0 -12.16c0,-3.28 -0.64,-5.61 -1.91,-6.97 -1.28,-1.37 -3.19,-2.05 -5.74,-2.05l-8.75 0 0 30.2 8.75 0zm39.74 -82l39.64 0 0 13.67 -24.6 0 0 82 -15.04 0 0 -95.67 0 0z"/>
   <path class="fil1" d="M76.5 60.1c-0.73,-0.87 -1.44,-1.75 -2.15,-2.64 -4.33,-5.41 -8.85,-10.04 -13.55,-15.13l-19.92 -21.57 -19.9 21.57c-4.7,5.09 -9.23,9.72 -13.56,15.13 -0.71,0.89 -1.42,1.77 -2.14,2.64 -19.05,23.05 9.88,52.36 32.62,34.46 -1.45,13.11 -9.79,19.35 -13.85,21.56 -1.43,0.78 -1.78,0.94 -1.78,2.82l37.24 0 0 0c0,-1.88 -0.36,-2.04 -1.79,-2.82 -4.07,-2.21 -12.4,-8.45 -13.85,-21.56 22.74,17.9 51.67,-11.41 32.63,-34.46l0 0z"/>
  </g>
 </g>
</svg>
