<?xml version="1.0" encoding="UTF-8"?>
<!DOCTYPE svg PUBLIC "-//W3C//DTD SVG 1.1//EN" "http://www.w3.org/Graphics/SVG/1.1/DTD/svg11.dtd">
<!-- Creator: CorelDRAW 2020 (64-Bit) -->
<svg xmlns="http://www.w3.org/2000/svg" xml:space="preserve" width="118px" height="118px" version="1.1" style="shape-rendering:geometricPrecision; text-rendering:geometricPrecision; image-rendering:optimizeQuality; fill-rule:evenodd; clip-rule:evenodd"
viewBox="0 0 118 118"
 xmlns:xlink="http://www.w3.org/1999/xlink"
 xmlns:xodm="http://www.corel.com/coreldraw/odm/2003">
 <defs>
  <style type="text/css">
   <![CDATA[
    .fil0 {fill:#005A9C}
    .fil1 {fill:#E3941D}
    .fil2 {fill:#FEFEFE;fill-rule:nonzero}
   ]]>
  </style>
 </defs>
 <g id="Layer_x0020_1">
  <metadata id="CorelCorpID_0Corel-Layer"/>
  <g id="_2030566444688">
   <path class="fil0" d="M58.06 0.94c32.58,0 59,26.42 59,59l-118 0c0,-32.58 26.41,-59 59,-59z"/>
   <path class="fil1" d="M58.06 118.94c32.58,0 59,-26.41 59,-59l-118 0c0,32.59 26.41,59 59,59z"/>
   <path class="fil2" d="M78.19 34.33l-17.69 44.71 -7.16 -38.02c-0.84,-4.24 -4.15,-6.69 -7.83,-6.69l-28.92 0 -0.41 1.91c5.94,1.28 12.69,3.36 16.77,5.58 2.5,1.36 3.22,2.55 4.04,5.78l13.55 52.42 17.96 0 27.53 -65.69 -17.84 0z"/>
  </g>
 </g>
</svg>
