<?xml version="1.0" encoding="UTF-8"?>
<!DOCTYPE svg PUBLIC "-//W3C//DTD SVG 1.1//EN" "http://www.w3.org/Graphics/SVG/1.1/DTD/svg11.dtd">
<!-- Creator: CorelDRAW 2020 (64-Bit) -->
<svg xmlns="http://www.w3.org/2000/svg" xml:space="preserve" width="118px" height="118px" version="1.1" style="shape-rendering:geometricPrecision; text-rendering:geometricPrecision; image-rendering:optimizeQuality; fill-rule:evenodd; clip-rule:evenodd"
viewBox="0 0 118 118"
 xmlns:xlink="http://www.w3.org/1999/xlink"
 xmlns:xodm="http://www.corel.com/coreldraw/odm/2003">
 <defs>
  <style type="text/css">
   <![CDATA[
    .fil0 {fill:#6666CC;fill-rule:nonzero}
   ]]>
  </style>
 </defs>
 <g id="Layer_x0020_1">
  <metadata id="CorelCorpID_0Corel-Layer"/>
  <g id="_2025509884800" data-name="Layer 2">
   <path class="fil0" d="M58.1 118.9c32.58,0 59,-26.42 59,-59 0,-32.58 -26.42,-59 -59,-59 -32.58,0 -59,26.42 -59,59 0,32.58 26.42,59 59,59l0 0zm-30.62 -57.45c1,-1 2.36,-1.56 3.78,-1.56 1.41,0 2.78,0.56 3.78,1.56l12.34 12.34 31.05 -31.06c0.97,-0.83 2.21,-1.29 3.49,-1.29 2.96,0 5.36,2.41 5.36,5.37 0,1.28 -0.45,2.51 -1.29,3.49l-34.86 34.86c-1,1 -2.36,1.56 -3.78,1.56 -1.42,0 -2.78,-0.56 -3.78,-1.56l-16.09 -16.09c-1.02,-1.01 -1.59,-2.38 -1.59,-3.81 0,-1.43 0.57,-2.8 1.59,-3.81l0 0z"/>
  </g>
 </g>
</svg>
