<?xml version="1.0" encoding="UTF-8"?>
<!DOCTYPE svg PUBLIC "-//W3C//DTD SVG 1.1//EN" "http://www.w3.org/Graphics/SVG/1.1/DTD/svg11.dtd">
<!-- Creator: CorelDRAW 2020 (64-Bit) -->
<svg xmlns="http://www.w3.org/2000/svg" xml:space="preserve" width="118px" height="118px" version="1.1" style="shape-rendering:geometricPrecision; text-rendering:geometricPrecision; image-rendering:optimizeQuality; fill-rule:evenodd; clip-rule:evenodd"
viewBox="0 0 118 118"
 xmlns:xlink="http://www.w3.org/1999/xlink"
 xmlns:xodm="http://www.corel.com/coreldraw/odm/2003">
 <defs>
  <style type="text/css">
   <![CDATA[
    .fil0 {fill:#009933}
    .fil1 {fill:white;fill-rule:nonzero}
   ]]>
  </style>
 </defs>
 <g id="Layer_x0020_1">
  <metadata id="CorelCorpID_0Corel-Layer"/>
  <g id="_2281260992416">
   <circle class="fil0" cx="58.06" cy="59.94" r="59"/>
   <path class="fil1" d="M85.04 80.33l4.34 4.33c-1.03,0.5 -2.15,0.76 -3.29,0.77l-56.07 0c-1.14,-0.01 -2.26,-0.27 -3.28,-0.77l22.6 -22.6 4.21 3.77c1.23,1.13 2.84,1.75 4.51,1.76 1.67,-0.02 3.28,-0.64 4.53,-1.76l4.18 -3.75 18.27 18.25zm-28.03 -18.32c0.3,0.3 0.71,0.48 1.14,0.48 0.42,0 0.83,-0.18 1.13,-0.48l24.95 -22.45 4.94 -4.44c-0.97,-0.43 -2.02,-0.65 -3.08,-0.66l-56.07 0c-1.06,0.01 -2.11,0.23 -3.08,0.66l4.94 4.44 25.13 22.45zm-11.39 -3.37l-18.15 -16.18 -4.23 -3.8c-0.56,1.06 -0.86,2.24 -0.86,3.44l0 35.68c0,1.13 0.26,2.25 0.76,3.26l4.33 -4.33 18.15 -18.07zm47.25 -19.98l-4.23 3.8 -18.07 16.18 18.07 18.1 4.33 4.33c0.5,-1.02 0.76,-2.15 0.76,-3.29l0 -35.68c0,-1.2 -0.3,-2.37 -0.86,-3.43l0 -0.01z"/>
  </g>
 </g>
</svg>
