<?xml version="1.0" encoding="UTF-8"?>
<!DOCTYPE svg PUBLIC "-//W3C//DTD SVG 1.1//EN" "http://www.w3.org/Graphics/SVG/1.1/DTD/svg11.dtd">
<!-- Creator: CorelDRAW 2020 (64-Bit) -->
<svg xmlns="http://www.w3.org/2000/svg" xml:space="preserve" width="118px" height="118px" version="1.1" style="shape-rendering:geometricPrecision; text-rendering:geometricPrecision; image-rendering:optimizeQuality; fill-rule:evenodd; clip-rule:evenodd"
viewBox="0 0 118 118"
 xmlns:xlink="http://www.w3.org/1999/xlink"
 xmlns:xodm="http://www.corel.com/coreldraw/odm/2003">
 <defs>
  <style type="text/css">
   <![CDATA[
    .fil0 {fill:white}
    .fil1 {fill:red;fill-rule:nonzero}
   ]]>
  </style>
 </defs>
 <g id="Layer_x0020_1">
  <metadata id="CorelCorpID_0Corel-Layer"/>
  <g id="_2470135388080">
   <circle class="fil0" cx="58.06" cy="59.94" r="49.45"/>
   <path class="fil1" d="M58.06 0.94c-32.54,0 -59,26.47 -59,59 0,32.54 26.46,59 59,59 32.53,0 59,-26.46 59,-59 0,-32.53 -26.47,-59 -59,-59zm-15.14 18.16l30.26 0c14.18,0 25.72,11.54 25.72,25.71l0 30.26c0,14.18 -11.54,25.72 -25.71,25.72l-30.26 0c-14.18,0 -25.72,-11.54 -25.72,-25.71l0 -30.26c0,-14.18 11.54,-25.72 25.71,-25.72zm0 9.07c-9.17,0 -16.63,7.48 -16.63,16.65l0 30.26c0,9.17 7.47,16.63 16.64,16.63l30.26 0c9.17,0 16.64,-7.47 16.64,-16.64l0 -30.26c0,-9.17 -7.48,-16.64 -16.65,-16.64l-30.26 0 0 0zm36.32 7.57c1.67,0 3.02,1.35 3.02,3.02 0,1.67 -1.35,3.03 -3.02,3.03 -1.67,0 -3.03,-1.36 -3.03,-3.03 0,-1.67 1.36,-3.02 3.03,-3.02zm-21.18 1.51c12.51,0 22.69,10.18 22.69,22.69 0,12.52 -10.18,22.7 -22.69,22.7 -12.52,0 -22.7,-10.18 -22.7,-22.7 0,-12.51 10.18,-22.69 22.7,-22.69zm0 9.08c-7.52,0 -13.62,6.1 -13.62,13.61 0,7.52 6.1,13.62 13.62,13.62 7.51,0 13.61,-6.1 13.61,-13.62 0,-7.51 -6.1,-13.61 -13.61,-13.61z"/>
  </g>
 </g>
</svg>
