<?xml version="1.0" encoding="UTF-8"?>
<!DOCTYPE svg PUBLIC "-//W3C//DTD SVG 1.1//EN" "http://www.w3.org/Graphics/SVG/1.1/DTD/svg11.dtd">
<!-- Creator: CorelDRAW 2020 (64-Bit) -->
<svg xmlns="http://www.w3.org/2000/svg" xml:space="preserve" width="118px" height="118px" version="1.1" style="shape-rendering:geometricPrecision; text-rendering:geometricPrecision; image-rendering:optimizeQuality; fill-rule:evenodd; clip-rule:evenodd"
viewBox="0 0 118 118"
 xmlns:xlink="http://www.w3.org/1999/xlink"
 xmlns:xodm="http://www.corel.com/coreldraw/odm/2003">
 <defs>
  <style type="text/css">
   <![CDATA[
    .fil0 {fill:white}
    .fil1 {fill:#0D0D0D;fill-rule:nonzero}
    .fil2 {fill:#414141;fill-rule:nonzero}
    .fil9 {fill:gray;fill-rule:nonzero}
    .fil4 {fill:#820000;fill-rule:nonzero}
    .fil3 {fill:#ACACAC;fill-rule:nonzero}
    .fil7 {fill:#B80000;fill-rule:nonzero}
    .fil6 {fill:#EB140A;fill-rule:nonzero}
    .fil8 {fill:#FDC9C4;fill-rule:nonzero}
    .fil5 {fill:#FF3F36;fill-rule:nonzero}
   ]]>
  </style>
 </defs>
 <g id="Layer_x0020_1">
  <metadata id="CorelCorpID_0Corel-Layer"/>
  <circle class="fil0" cx="58.06" cy="59.94" r="54.97"/>
  <g id="_2111185687632">
   <path class="fil1" d="M71.03 47.56c0,0 4.82,-1.53 8.7,-5.29l0 3.18c-2.11,1.76 -4.82,2.7 -4.82,2.7l-3.88 -0.59z"/>
   <path class="fil1" d="M88.67 26.99l0 2c0.35,11.87 0.35,23.86 -0.12,35.73 0,-0.11 0,-0.11 0,-0.23l0 5.64 2.47 -1.76 0 -38.91 -2.35 -2.47z"/>
   <path class="fil2" d="M88.67 28.99c0,0 0,0 0,0l0 -1.88 -7.65 1.06c-0.7,2 -1.52,6.46 -9.99,10.69l0 8.7c0,0 4.82,-1.53 8.7,-5.29l0 3.18 0 24.09 8.94 0.71 0 -5.64c-0.48,-11.99 -0.36,-23.87 0,-35.62z"/>
   <path class="fil3" d="M88.67 28.99c0.35,11.87 0.35,23.86 -0.12,35.73 -0.36,-11.87 -0.24,-23.86 0.12,-35.73l0 0z"/>
   <polygon class="fil4" points="67.04,90.47 63.98,79.89 59.98,80.01 62.57,88.82 "/>
   <polygon class="fil4" points="57.51,70.13 53.75,56.5 55.99,49.44 61.86,70.13 "/>
   <path class="fil5" d="M61.86 36.87l-12.34 -2.36 -3.64 10.35c-4.24,13.05 -8.7,26.21 -13.4,39.14 8.58,-2.58 14.22,-7.87 18.57,-13.87l-1.41 0 6.23 -20.57 2 6.94c4.11,-11.17 3.99,-19.63 3.99,-19.63z"/>
   <polygon class="fil6" points="28.71,94.46 28.71,94.46 "/>
   <path class="fil6" d="M61.98 36.87l-0.23 0c0,0 0.11,8.46 -3.88,19.63l3.88 13.63 -10.7 0c-4.35,6.11 -9.99,11.4 -18.57,13.87 -1.3,3.53 -2.47,6.94 -3.77,10.46l14.82 -1.52 3.52 -12.23 16.93 -0.82 3.06 10.58 10.58 -1.18 -15.64 -52.42z"/>
   <path class="fil7" d="M46.23 43.8c-0.12,0.24 -0.12,0.47 -0.24,0.71l3.41 -10 -5.29 2.71 -18.92 54.31 3.53 2.93 0 0c5.4,-17.04 11.4,-33.97 17.51,-50.66z"/>
   <path class="fil8" d="M46.23 43.8c-5.52,16.93 -11.4,33.97 -17.52,50.66 5.41,-17.04 11.41,-33.97 17.52,-50.66l0 0z"/>
  </g>
  <path class="fil9" d="M58.1 0.9c16.29,0 31.05,6.6 41.72,17.28 10.68,10.67 17.28,25.43 17.28,41.72 0,16.29 -6.6,31.04 -17.28,41.72 -10.67,10.67 -25.43,17.28 -41.72,17.28 -16.29,0 -31.04,-6.61 -41.72,-17.28 -10.67,-10.68 -17.28,-25.43 -17.28,-41.72 0,-16.29 6.61,-31.05 17.28,-41.72 10.68,-10.68 25.43,-17.28 41.72,-17.28zm38.88 20.12c-9.95,-9.95 -23.69,-16.1 -38.88,-16.1 -15.18,0 -28.92,6.15 -38.87,16.1 -9.95,9.95 -16.11,23.69 -16.11,38.88 0,15.18 6.16,28.92 16.11,38.87 9.95,9.95 23.69,16.11 38.87,16.11 15.19,0 28.93,-6.16 38.88,-16.11 9.95,-9.95 16.1,-23.69 16.1,-38.87 0,-15.19 -6.15,-28.93 -16.1,-38.88z"/>
 </g>
</svg>
