<?xml version="1.0" encoding="UTF-8"?>
<!DOCTYPE svg PUBLIC "-//W3C//DTD SVG 1.1//EN" "http://www.w3.org/Graphics/SVG/1.1/DTD/svg11.dtd">
<!-- Creator: CorelDRAW 2020 (64-Bit) -->
<svg xmlns="http://www.w3.org/2000/svg" xml:space="preserve" width="118px" height="118px" version="1.1" style="shape-rendering:geometricPrecision; text-rendering:geometricPrecision; image-rendering:optimizeQuality; fill-rule:evenodd; clip-rule:evenodd"
viewBox="0 0 118 118"
 xmlns:xlink="http://www.w3.org/1999/xlink"
 xmlns:xodm="http://www.corel.com/coreldraw/odm/2003">
 <defs>
  <style type="text/css">
   <![CDATA[
    .fil0 {fill:gray}
    .fil1 {fill:white;fill-rule:nonzero}
   ]]>
  </style>
 </defs>
 <g id="Layer_x0020_1">
  <metadata id="CorelCorpID_0Corel-Layer"/>
  <g id="_2609224461536">
   <circle class="fil0" cx="58.06" cy="59.94" r="59"/>
   <path class="fil1" d="M71.92 17.55c0.18,0 0.36,0 0.55,0 0.45,5.51 -1.65,9.63 -4.21,12.61 -2.51,2.96 -5.95,5.84 -11.5,5.4 -0.37,-5.43 1.73,-9.24 4.29,-12.22 2.36,-2.77 6.71,-5.24 10.87,-5.79zm16.82 57.38c0,0.05 0,0.1 0,0.15 -1.56,4.73 -3.79,8.78 -6.51,12.54 -2.48,3.42 -5.52,8.02 -10.95,8.02 -4.69,0 -7.81,-3.02 -12.62,-3.1 -5.09,-0.09 -7.88,2.52 -12.53,3.17 -0.54,0 -1.07,0 -1.59,0 -3.42,-0.49 -6.17,-3.19 -8.18,-5.63 -5.92,-7.2 -10.5,-16.5 -11.35,-28.41 0,-1.16 0,-2.33 0,-3.5 0.36,-8.51 4.5,-15.44 10,-18.8 2.91,-1.78 6.9,-3.3 11.35,-2.62 1.9,0.29 3.85,0.94 5.55,1.59 1.62,0.62 3.64,1.72 5.56,1.66 1.29,-0.03 2.58,-0.71 3.89,-1.19 3.83,-1.38 7.59,-2.97 12.54,-2.22 5.95,0.9 10.17,3.54 12.78,7.62 -5.04,3.2 -9.01,8.03 -8.34,16.27 0.61,7.48 4.96,11.86 10.4,14.45z"/>
  </g>
 </g>
</svg>
