<?xml version="1.0" encoding="UTF-8"?>
<!DOCTYPE svg PUBLIC "-//W3C//DTD SVG 1.1//EN" "http://www.w3.org/Graphics/SVG/1.1/DTD/svg11.dtd">
<!-- Creator: CorelDRAW 2020 (64-Bit) -->
<svg xmlns="http://www.w3.org/2000/svg" xml:space="preserve" width="118px" height="118px" version="1.1" style="shape-rendering:geometricPrecision; text-rendering:geometricPrecision; image-rendering:optimizeQuality; fill-rule:evenodd; clip-rule:evenodd"
viewBox="0 0 118 118"
 xmlns:xlink="http://www.w3.org/1999/xlink"
 xmlns:xodm="http://www.corel.com/coreldraw/odm/2003">
 <defs>
  <style type="text/css">
   <![CDATA[
    .fil0 {fill:#9900CC}
    .fil1 {fill:white;fill-rule:nonzero}
   ]]>
  </style>
 </defs>
 <g id="Layer_x0020_1">
  <metadata id="CorelCorpID_0Corel-Layer"/>
  <g id="_2844808736976">
   <circle class="fil0" cx="58.06" cy="59.94" r="59"/>
   <g>
    <path class="fil1" d="M94.73 31.16l-36.24 -9.95c-0.29,-0.08 -0.59,-0.08 -0.89,0l-36.24 9.95c-0.73,0.2 -1.24,0.87 -1.24,1.63l0 4.93c0,0.93 0.76,1.69 1.69,1.69l72.47 0c0.93,0 1.68,-0.76 1.68,-1.69l0 -4.93c0,-0.76 -0.5,-1.43 -1.24,-1.63l0.01 0zm-36.68 3.61c-2.1,0 -3.8,-1.7 -3.8,-3.8 0,-2.1 1.7,-3.8 3.8,-3.8 2.1,0 3.79,1.7 3.79,3.8 0,2.1 -1.69,3.8 -3.79,3.8z"/>
    <path class="fil1" d="M94.95 82.73l-7.45 -3.24 0 -36.34 -9.44 0 0 36.34 -7.16 0 0 -36.34 -9.44 0 0 36.34 -7.17 0 0 -36.34 -9.44 0 0 36.34 -7.16 0 0 -36.34 -9.44 0 0 36.34 -7.11 3.23c-0.6,0.27 -0.99,0.88 -0.99,1.54l0 3.8c0,0.93 0.76,1.69 1.69,1.69l72.46 0c0.93,0 1.69,-0.76 1.69,-1.69l0 -3.77c0,-0.68 -0.4,-1.29 -1.01,-1.55l-0.03 -0.01z"/>
   </g>
  </g>
 </g>
</svg>
