<?xml version="1.0" encoding="UTF-8"?>
<!DOCTYPE svg PUBLIC "-//W3C//DTD SVG 1.1//EN" "http://www.w3.org/Graphics/SVG/1.1/DTD/svg11.dtd">
<!-- Creator: CorelDRAW 2020 (64-Bit) -->
<svg xmlns="http://www.w3.org/2000/svg" xml:space="preserve" width="118px" height="118px" version="1.1" style="shape-rendering:geometricPrecision; text-rendering:geometricPrecision; image-rendering:optimizeQuality; fill-rule:evenodd; clip-rule:evenodd"
viewBox="0 0 118 118"
 xmlns:xlink="http://www.w3.org/1999/xlink"
 xmlns:xodm="http://www.corel.com/coreldraw/odm/2003">
 <defs>
  <style type="text/css">
   <![CDATA[
    .fil0 {fill:#FFD100}
    .fil1 {fill:#000016;fill-rule:nonzero}
   ]]>
  </style>
 </defs>
 <g id="Layer_x0020_1">
  <metadata id="CorelCorpID_0Corel-Layer"/>
  <g id="_2609311616576">
   <circle class="fil0" cx="58.06" cy="59.94" r="59"/>
   <g>
    <g>
     <path class="fil1" d="M32.97 28.56c0.05,0.57 -0.07,1.15 -0.33,1.66 -0.27,0.5 -0.65,0.95 -1.12,1.3l0.43 0.76c0.61,-0.43 1.08,-1.03 1.36,-1.72l3.95 7.04 1.64 -0.91 -4.88 -8.71 -1.05 0.58zm24.41 -4.18l5.21 0.75c-1.19,0.98 -2.23,2.12 -3.09,3.39 -0.81,1.34 -1.38,2.8 -1.68,4.33l2.16 0.32c0.32,-3.18 1.81,-6.12 4.17,-8.26l0.17 -1.2 -6.46 -0.94 -0.48 1.61zm17.86 4.99c-0.05,0.3 -0.12,0.58 -0.23,0.86 -0.13,0.28 -0.25,0.54 -0.37,0.77 -0.13,0.26 -0.29,0.51 -0.46,0.75 -0.17,0.26 -0.38,0.5 -0.61,0.71 -0.22,0.19 -0.48,0.32 -0.77,0.39 -0.3,0.07 -0.61,0.02 -0.88,-0.13 -0.2,-0.11 -0.35,-0.3 -0.4,-0.53 -0.07,-0.22 -0.08,-0.45 -0.04,-0.67 0.05,-0.25 0.13,-0.49 0.24,-0.72 0.08,-0.22 0.18,-0.44 0.29,-0.65l0.11 -0.21c0.11,-0.22 0.26,-0.47 0.43,-0.75 0.16,-0.28 0.34,-0.54 0.56,-0.77 0.2,-0.22 0.45,-0.39 0.72,-0.51 0.26,-0.1 0.55,-0.08 0.79,0.06 0.26,0.13 0.47,0.34 0.59,0.6 0.07,0.27 0.09,0.55 0.03,0.82l0 -0.02zm-0.41 -1.99c-0.78,-0.44 -1.71,-0.5 -2.54,-0.16 -0.86,0.36 -1.55,1.02 -1.94,1.86 -0.37,0.69 -0.52,1.47 -0.43,2.25 0.06,0.77 0.53,1.45 1.23,1.79 0.38,0.21 0.82,0.31 1.25,0.26 0.42,-0.08 0.82,-0.22 1.2,-0.42 -0.29,0.49 -0.59,1 -0.92,1.52 -0.32,0.51 -0.77,0.93 -1.29,1.22 -0.49,0.31 -1.11,0.34 -1.63,0.09 -0.31,-0.16 -0.54,-0.43 -0.66,-0.75 -0.06,-0.17 -0.09,-0.34 -0.08,-0.52 -0.01,-0.17 0.03,-0.34 0.11,-0.49 0.14,-0.27 0.3,-0.52 0.48,-0.76l-0.92 -0.22c-0.11,0.14 -0.2,0.28 -0.28,0.44 -0.29,0.51 -0.29,1.15 0.01,1.66 0.27,0.51 0.69,0.92 1.21,1.18 1.12,0.67 2.52,0.63 3.6,-0.1 1.04,-0.75 1.87,-1.76 2.43,-2.91 0.28,-0.54 0.52,-1.09 0.71,-1.66 0.18,-0.53 0.26,-1.08 0.25,-1.64 -0.01,-1.16 -0.72,-2.2 -1.79,-2.63l0 -0.01zm-25.29 4.86c-0.32,0.41 -0.77,0.69 -1.29,0.78 -0.61,0.12 -1.26,-0.01 -1.78,-0.37 -0.56,-0.32 -0.94,-0.88 -1.05,-1.51 -0.09,-0.41 -0.04,-0.83 0.14,-1.21 0.18,-0.36 0.42,-0.68 0.73,-0.93 0.33,0.04 0.68,0.08 1.05,0.12 0.37,0.05 0.75,0.13 1.11,0.25 0.35,0.09 0.67,0.26 0.95,0.49 0.27,0.26 0.45,0.6 0.5,0.97 0.1,0.5 -0.03,1.02 -0.37,1.41l0.01 0zm-3.99 -5.67c-0.23,-0.16 -0.39,-0.4 -0.44,-0.68 -0.05,-0.24 -0.03,-0.49 0.06,-0.73 0.06,-0.21 0.18,-0.4 0.33,-0.55 0.32,-0.31 0.73,-0.52 1.17,-0.6 0.49,-0.07 0.99,0.05 1.39,0.32 0.42,0.31 0.7,0.76 0.78,1.27 0.07,0.32 0.04,0.65 -0.08,0.95 -0.14,0.32 -0.36,0.59 -0.63,0.8 -0.23,-0.04 -0.5,-0.07 -0.81,-0.12 -0.32,-0.05 -0.64,-0.13 -0.95,-0.23 -0.3,-0.1 -0.58,-0.24 -0.82,-0.43l0 0zm4.76 1.72c-0.51,-0.36 -1.07,-0.63 -1.66,-0.79 0.36,-0.26 0.66,-0.61 0.86,-1.01 0.2,-0.41 0.26,-0.88 0.16,-1.32 -0.09,-0.71 -0.55,-1.3 -1.2,-1.58 -0.64,-0.24 -1.33,-0.3 -2.01,-0.17 -0.75,0.14 -1.44,0.54 -1.93,1.14 -0.53,0.62 -0.74,1.44 -0.57,2.24 0.08,0.47 0.31,0.9 0.66,1.23 0.32,0.33 0.71,0.61 1.13,0.8 -0.42,0.27 -0.76,0.64 -1.01,1.07 -0.24,0.47 -0.31,1 -0.19,1.52 0.06,0.41 0.25,0.8 0.53,1.12 0.26,0.3 0.59,0.55 0.95,0.72 1.57,0.72 3.43,0.34 4.59,-0.94 0.59,-0.68 0.82,-1.6 0.62,-2.47 -0.1,-0.62 -0.43,-1.19 -0.93,-1.57l0 0.01z"/>
    </g>
    <g>
     <path class="fil1" d="M100.3 40.83l-25.48 0c7.7,4.86 13.23,12.51 15.43,21.35 0.8,3.14 1.23,6.36 1.28,9.6 0.01,8.98 -3.33,17.64 -9.38,24.27 0.16,0.24 0.34,0.37 0.59,0.18 7.14,-4.69 16.44,-14.86 19.53,-26.75 2.4,-9.52 1.71,-19.55 -1.97,-28.66l0 0.01zm-24.1 51.53c-1.47,1.48 -3.04,2.83 -4.72,4.06l1.32 -1.73c0,0 -0.23,-0.2 -0.3,-1.28 -0.08,-1.09 0.06,-4.7 0.21,-6.93 0.15,-2.24 0.31,-6.83 0.31,-6.83l-0.06 -0.21c0,0 -0.65,0 -1.7,0.07 -1.13,0.07 -2.27,0.07 -3.4,-0.02 -0.49,-0.11 -0.94,-0.35 -1.31,-0.68 -0.43,-0.32 -0.81,-0.7 -1.1,-1.15 0,0 0,-0.08 0.88,-0.08 1.37,-0.14 2.73,-0.42 4.04,-0.86 1.54,-0.49 2.95,-1.32 4.14,-2.42 1.03,-1.07 1.72,-2.43 1.97,-3.9 0.29,-1.25 0.31,-2.55 0.05,-3.81 -0.31,-1.67 -0.88,-3.27 -1.7,-4.75 -0.74,-1.21 -1.68,-2.27 -2.79,-3.15 -0.77,-0.41 -0.77,-0.48 -0.77,-0.48l5.7 -6.19c10.55,11.5 10.2,29.26 -0.77,40.35l0 -0.01zm-8.44 0.45c-0.08,0.23 -0.97,0.34 -2.03,0.67 -1.12,0.26 -2.03,1.05 -2.43,2.12 -0.27,1.01 -0.25,2.08 0.06,3.08 0.08,0.39 0.25,0.74 0.51,1.04 -2.63,0.77 -5.35,1.16 -8.09,1.16 -4.84,-0.02 -9.61,-1.23 -13.87,-3.53l2.29 0.08c0,0 0.79,-1.05 1.46,-1.86 0.67,-0.82 3.59,-4.22 4.16,-4.89 0.57,-0.68 2.04,-2.21 2.39,-2.57 0.36,-0.36 0.45,-0.46 0.45,-0.46 -0.02,-0.17 -0.09,-0.34 -0.2,-0.49 -0.28,-0.34 -0.62,-0.63 -1,-0.86 -0.41,-0.28 -0.67,-0.5 -0.72,-0.77 -0.06,-0.27 0.44,-0.89 1,-1.69 0.56,-0.81 2.21,-2.42 2.94,-3.23 0.34,-0.42 0.76,-0.77 1.24,-1.02 0.08,0.27 0.15,0.74 0.67,2.39 0.51,1.44 1.4,2.73 2.56,3.73 1.34,1.09 3.01,1.68 4.74,1.69 1.18,0.05 2.36,-0.07 3.5,-0.38l0.45 5.04c0,0.25 -0.02,0.51 -0.08,0.76l0 -0.01zm-27.08 -2.29c-0.53,-0.41 -1.17,-0.64 -1.84,-0.65 -1,-0.06 -1.98,0.21 -2.82,0.75 -0.45,0.35 -0.81,0.8 -1.05,1.32 -5.96,-6.25 -8.85,-14.82 -7.88,-23.4l0.33 2.01c0,0 4.8,-0.31 5.92,-0.31 1.12,0 9.64,-0.16 10.74,-0.22 1.1,-0.06 3.02,-0.04 3.02,-0.04l1.84 1.48c0.85,0.68 2.8,2.64 2.8,2.64l1.21 1.2 0.02 0.09c-0.28,-0.12 -0.58,-0.19 -0.89,-0.22 -0.86,-0.12 -1.73,-0.13 -2.59,-0.03 -1.73,0.11 -3.36,0.84 -4.6,2.06 -1.22,1.29 -1.87,3.02 -1.8,4.79 0.04,1.17 0.44,2.31 1.13,3.25 0.46,0.59 1.03,1.07 1.67,1.43 0,0 -0.99,1.12 -1.76,1.9 -0.78,0.77 -2.1,2.39 -2.1,2.39l-0.66 0.65c-0.19,-0.38 -0.42,-0.75 -0.68,-1.08l-0.01 -0.01zm30.08 -20.59c-0.32,1.01 -1.05,1.85 -2.02,2.31 -1.31,0.53 -2.75,0.64 -4.13,0.34 -1.47,-0.4 -2.82,-1.17 -3.91,-2.23 -0.89,-0.89 -0.71,-1.05 -0.71,-1.05 0.44,-0.18 0.82,-0.49 1.09,-0.89 0.54,-0.62 1.12,-1.21 1.74,-1.75 0.88,-1.18 1.56,-2.5 2,-3.91 0.57,-1.28 0.95,-2.65 1.12,-4.04 0.46,0.42 0.88,0.89 1.26,1.39 0.53,0.73 1.38,1.85 2.15,3.01 0.74,1.3 1.29,2.7 1.62,4.16 0.13,0.89 0.06,1.8 -0.21,2.65l0 0.01zm-38.3 -15.31l-0.42 1.51c0,0 3.62,2.99 5.51,4.61 1.89,1.62 3.75,3.48 3.75,3.48l2.19 -4.89 -3.75 -3.23 -1.3 -1.3c0.28,-0.29 0.53,-0.6 0.77,-0.93 0.59,-0.77 0.79,-1.76 0.56,-2.7 -0.44,-0.87 -1.04,-1.66 -1.75,-2.32 10.81,-8.53 26.15,-8.17 36.55,0.85l-0.29 0c-1.15,-0.01 -2.3,0.15 -3.41,0.46 -1.57,0.48 -2.93,1.47 -3.88,2.81 -0.79,1.21 -1.34,2.58 -1.59,4.01 0,0.12 -0.13,0 -0.13,0 -0.15,-0.65 -0.33,-1.29 -0.54,-1.93 -0.54,-1.35 -1.23,-2.65 -2.05,-3.85 -0.52,-0.65 -1,-1.32 -1.43,-2.03 -0.11,-0.41 0.29,-0.82 0.55,-1.33 0.25,-0.51 0.16,-0.6 0,-0.9 -0.62,-0.46 -1.35,-0.75 -2.12,-0.84 -1.2,-0.22 -2.42,-0.33 -3.63,-0.32 -1.34,-0.01 -2.67,0.11 -3.98,0.33 -1.53,0.13 -3.02,0.61 -4.34,1.4 -0.54,0.55 -0.8,1.33 -0.7,2.1 0.04,0.85 0.31,1.68 0.79,2.4 0.31,0.23 0.69,0.34 1.08,0.31 0.88,0.05 1.76,-0.22 2.46,-0.76 0.29,-0.16 0.61,-0.24 0.94,-0.23 0.38,0 1.32,0 1.32,1.39 0.05,0.99 -0.72,1.84 -1.71,1.9 -0.02,0 -0.03,0 -0.05,0 -0.55,-0.03 -1.11,-0.11 -1.64,-0.26 -0.63,-0.14 -1.26,-0.26 -1.9,-0.34 -0.38,0.06 -0.67,0.35 -0.72,0.73 -0.01,0.45 0.09,0.89 0.28,1.29 0.21,0.37 0.94,0.66 2.02,0.66 0.84,-0.01 1.69,-0.08 2.53,-0.2 0.62,-0.06 0.83,0.11 0.9,0.24 0.02,0.15 -0.04,0.29 -0.15,0.4 -0.18,0.18 -0.61,0.2 -1.89,0.2 -1.86,-0.14 -3.71,0.44 -5.14,1.64 -1.5,1.97 -2.78,4.09 -3.8,6.35 -1.58,0.24 -3.17,0.39 -4.77,0.45 -1.95,0 -5.56,-0.29 -5.56,-0.29 0.02,-1.02 -0.14,-2.04 -0.48,-3 -0.53,-0.92 -1.44,-1.55 -2.49,-1.74 0.89,-2.17 2.03,-4.22 3.41,-6.12l0 -0.01zm46.6 -6.28c-12.73,-12.85 -33.48,-12.96 -46.34,-0.22 -0.08,0.07 -0.15,0.15 -0.23,0.22 -12.84,12.99 -12.84,33.89 0,46.87 6.15,6.22 14.54,9.72 23.29,9.72 8.75,0 17.13,-3.5 23.28,-9.72 12.85,-12.98 12.85,-33.88 0,-46.87l0 0zm-59.04 23.44c-0.03,-7.79 2.49,-15.37 7.16,-21.61l-13.63 0c-1.32,5.63 -1.46,11.48 -0.43,17.17 2.18,12.14 7.25,21.22 13.95,27.45 1.27,1.01 1.88,1.54 1.77,0.63 -5.7,-6.56 -8.83,-14.96 -8.82,-23.64l0 0z"/>
    </g>
   </g>
  </g>
 </g>
</svg>
