<?xml version="1.0" encoding="UTF-8"?>
<!DOCTYPE svg PUBLIC "-//W3C//DTD SVG 1.1//EN" "http://www.w3.org/Graphics/SVG/1.1/DTD/svg11.dtd">
<!-- Creator: CorelDRAW 2020 (64-Bit) -->
<svg xmlns="http://www.w3.org/2000/svg" xml:space="preserve" width="118px" height="118px" version="1.1" style="shape-rendering:geometricPrecision; text-rendering:geometricPrecision; image-rendering:optimizeQuality; fill-rule:evenodd; clip-rule:evenodd"
viewBox="0 0 118 118"
 xmlns:xlink="http://www.w3.org/1999/xlink"
 xmlns:xodm="http://www.corel.com/coreldraw/odm/2003">
 <defs>
  <style type="text/css">
   <![CDATA[
    .str0 {stroke:red;stroke-width:4.16;stroke-miterlimit:22.9256}
    .fil2 {fill:#ED1C24}
    .fil0 {fill:white}
    .fil1 {fill:#ED1C24;fill-rule:nonzero}
   ]]>
  </style>
 </defs>
 <g id="Layer_x0020_1">
  <metadata id="CorelCorpID_0Corel-Layer"/>
  <g id="_2730512958032">
   <path class="fil0 str0" d="M58.06 3.39c31.22,0 56.55,25.33 56.55,56.56 0,31.22 -25.33,56.55 -56.55,56.55 -31.23,0 -56.55,-25.33 -56.55,-56.55 0,-31.23 25.32,-56.56 56.55,-56.56l0 0z"/>
   <path class="fil1 str0" d="M58.06 116.83c-31.37,0 -56.89,-25.52 -56.89,-56.88 0,-31.38 25.52,-56.9 56.89,-56.9 31.37,0 56.89,25.52 56.89,56.9 0,31.36 -25.52,56.88 -56.89,56.88zm0 -113.1c-31,0 -56.21,25.22 -56.21,56.22 0,30.99 25.21,56.2 56.21,56.2 30.99,0 56.21,-25.21 56.21,-56.2 0,-31 -25.22,-56.22 -56.21,-56.22z"/>
  </g>
  <g id="_2730512960960">
   <path class="fil2" d="M1.48 76.71l30.83 -19.84 -1.99 -3.1 -29.82 19.2c0.28,1.25 0.59,2.51 0.98,3.74l0 0z"/>
  </g>
  <g id="_2730512960096">
   <polygon class="fil2" points="40.03,68.23 31.28,55.28 27.76,55.51 36.51,68.46 "/>
  </g>
  <g id="_2730512955536">
   <polygon class="fil2" points="38.51,71.52 63.81,44.2 61.14,41.74 36.47,68.42 "/>
  </g>
  <g id="_2730512956448">
   <polygon class="fil2" points="74.24,56.24 102.94,21.65 99.69,18.47 70.75,53.34 "/>
  </g>
  <g id="_2730512957840">
   <polygon class="fil2" points="74.68,52.61 61.26,41.85 59.15,44.15 71.39,53.88 "/>
  </g>
  <g id="_2730512955008">
   <polygon class="fil2" points="87.41,24.38 101.44,19.95 99.4,17.85 86.78,22.04 "/>
  </g>
  <g id="_2730512952560">
   <polygon class="fil2" points="101.82,33.44 103.25,22.02 102.92,21.63 101.41,19.93 99.41,33.18 "/>
  </g>
  <g id="_2730512954576">
   <path class="fil1" d="M9.78 63.37l0 0.26 -1.48 0c0,-0.07 0.01,-0.13 0.03,-0.19 0.04,-0.11 0.1,-0.2 0.18,-0.3 0.09,-0.1 0.21,-0.21 0.36,-0.34 0.25,-0.2 0.41,-0.36 0.5,-0.48 0.08,-0.11 0.13,-0.22 0.13,-0.33 0,-0.11 -0.04,-0.2 -0.12,-0.27 -0.08,-0.08 -0.18,-0.12 -0.31,-0.12 -0.13,0 -0.24,0.04 -0.32,0.12 -0.07,0.08 -0.12,0.19 -0.12,0.34l-0.28 -0.04c0.02,-0.21 0.09,-0.37 0.22,-0.48 0.13,-0.11 0.3,-0.17 0.51,-0.17 0.22,0 0.38,0.07 0.51,0.19 0.13,0.11 0.19,0.26 0.19,0.44 0,0.09 -0.02,0.18 -0.06,0.27 -0.03,0.08 -0.09,0.17 -0.18,0.27 -0.09,0.09 -0.23,0.22 -0.42,0.39 -0.17,0.14 -0.28,0.24 -0.32,0.28 -0.05,0.05 -0.09,0.11 -0.12,0.16l1.1 0 0 0z"/>
  </g>
  <g id="_2730512952512">
   <path class="fil1" d="M10.08 62.52c0,-0.27 0.02,-0.48 0.08,-0.64 0.05,-0.16 0.13,-0.28 0.24,-0.37 0.11,-0.09 0.24,-0.14 0.41,-0.14 0.12,0 0.22,0.03 0.32,0.08 0.09,0.04 0.16,0.11 0.22,0.21 0.06,0.09 0.1,0.2 0.14,0.33 0.03,0.13 0.05,0.31 0.05,0.53 0,0.27 -0.03,0.48 -0.08,0.64 -0.05,0.16 -0.14,0.29 -0.24,0.37 -0.11,0.09 -0.25,0.13 -0.41,0.13 -0.22,0 -0.39,-0.07 -0.51,-0.22 -0.15,-0.2 -0.22,-0.5 -0.22,-0.92l0 0zm0.28 0c0,0.37 0.04,0.62 0.13,0.74 0.09,0.12 0.19,0.18 0.32,0.18 0.13,0 0.23,-0.06 0.32,-0.18 0.08,-0.12 0.13,-0.37 0.13,-0.74 0,-0.37 -0.05,-0.61 -0.13,-0.73 -0.09,-0.13 -0.2,-0.19 -0.33,-0.19 -0.12,0 -0.22,0.06 -0.3,0.16 -0.09,0.14 -0.14,0.39 -0.14,0.76l0 0z"/>
  </g>
  <g id="_2730512953568">
   <path class="fil1" d="M11.82 62.52c0,-0.27 0.03,-0.48 0.08,-0.64 0.06,-0.16 0.14,-0.28 0.25,-0.37 0.1,-0.09 0.24,-0.14 0.4,-0.14 0.12,0 0.23,0.03 0.32,0.08 0.09,0.04 0.16,0.11 0.22,0.21 0.06,0.09 0.11,0.2 0.14,0.33 0.04,0.13 0.05,0.31 0.05,0.53 0,0.27 -0.03,0.48 -0.08,0.64 -0.05,0.16 -0.13,0.29 -0.24,0.37 -0.11,0.09 -0.25,0.13 -0.41,0.13 -0.22,0 -0.38,-0.07 -0.51,-0.22 -0.15,-0.2 -0.22,-0.5 -0.22,-0.92l0 0zm0.28 0c0,0.37 0.05,0.62 0.13,0.74 0.09,0.12 0.19,0.18 0.32,0.18 0.13,0 0.23,-0.06 0.32,-0.18 0.09,-0.12 0.13,-0.37 0.13,-0.74 0,-0.37 -0.04,-0.61 -0.13,-0.73 -0.09,-0.13 -0.2,-0.19 -0.32,-0.19 -0.13,0 -0.23,0.06 -0.31,0.16 -0.09,0.14 -0.14,0.39 -0.14,0.76l0 0z"/>
  </g>
  <g id="_2730512953952">
   <path class="fil1" d="M9.22 54.11l0 -0.53 -0.97 0 0 -0.26 1.02 -1.45 0.22 0 0 1.45 0.31 0 0 0.26 -0.31 0 0 0.53 -0.27 0 0 0zm0 -0.79l0 -1.01 -0.71 1.01 0.71 0 0 0z"/>
  </g>
  <g id="_2730512942096">
   <path class="fil1" d="M10.08 53.01c0,-0.27 0.02,-0.48 0.08,-0.64 0.05,-0.16 0.13,-0.29 0.24,-0.38 0.11,-0.09 0.24,-0.13 0.41,-0.13 0.12,0 0.22,0.03 0.32,0.08 0.09,0.04 0.16,0.11 0.22,0.21 0.06,0.09 0.1,0.2 0.14,0.33 0.03,0.13 0.05,0.31 0.05,0.53 0,0.26 -0.03,0.47 -0.08,0.64 -0.05,0.16 -0.14,0.28 -0.24,0.37 -0.11,0.09 -0.25,0.13 -0.41,0.13 -0.22,0 -0.39,-0.08 -0.51,-0.23 -0.15,-0.19 -0.22,-0.49 -0.22,-0.91l0 0zm0.28 0c0,0.36 0.04,0.61 0.13,0.73 0.09,0.12 0.19,0.18 0.32,0.18 0.13,0 0.23,-0.06 0.32,-0.18 0.08,-0.12 0.13,-0.37 0.13,-0.73 0,-0.37 -0.05,-0.62 -0.13,-0.74 -0.09,-0.12 -0.2,-0.18 -0.33,-0.18 -0.12,0 -0.22,0.06 -0.3,0.16 -0.09,0.14 -0.14,0.39 -0.14,0.76l0 0z"/>
  </g>
  <g id="_2730512928128">
   <path class="fil1" d="M11.82 53.01c0,-0.27 0.03,-0.48 0.08,-0.64 0.06,-0.16 0.14,-0.29 0.25,-0.38 0.1,-0.09 0.24,-0.13 0.4,-0.13 0.12,0 0.23,0.03 0.32,0.08 0.09,0.04 0.16,0.11 0.22,0.21 0.06,0.09 0.11,0.2 0.14,0.33 0.04,0.13 0.05,0.31 0.05,0.53 0,0.26 -0.03,0.47 -0.08,0.64 -0.05,0.16 -0.13,0.28 -0.24,0.37 -0.11,0.09 -0.25,0.13 -0.41,0.13 -0.22,0 -0.38,-0.08 -0.51,-0.23 -0.15,-0.19 -0.22,-0.49 -0.22,-0.91l0 0zm0.28 0c0,0.36 0.05,0.61 0.13,0.73 0.09,0.12 0.19,0.18 0.32,0.18 0.13,0 0.23,-0.06 0.32,-0.18 0.09,-0.12 0.13,-0.37 0.13,-0.73 0,-0.37 -0.04,-0.62 -0.13,-0.74 -0.09,-0.12 -0.2,-0.18 -0.32,-0.18 -0.13,0 -0.23,0.06 -0.31,0.16 -0.09,0.14 -0.14,0.39 -0.14,0.76l0 0z"/>
  </g>
  <g id="_2730512927696">
   <path class="fil1" d="M9.76 43.07l-0.27 0.02c-0.03,-0.11 -0.06,-0.19 -0.11,-0.23 -0.07,-0.09 -0.16,-0.13 -0.27,-0.13 -0.09,0 -0.16,0.03 -0.23,0.08 -0.09,0.06 -0.16,0.15 -0.21,0.27 -0.05,0.13 -0.07,0.3 -0.07,0.53 0.06,-0.11 0.14,-0.18 0.24,-0.23 0.09,-0.05 0.2,-0.07 0.3,-0.07 0.18,0 0.34,0.06 0.47,0.2 0.13,0.13 0.19,0.31 0.19,0.52 0,0.14 -0.03,0.27 -0.09,0.4 -0.06,0.12 -0.14,0.21 -0.25,0.27 -0.1,0.07 -0.22,0.1 -0.36,0.1 -0.23,0 -0.42,-0.09 -0.56,-0.25 -0.14,-0.17 -0.22,-0.45 -0.22,-0.84 0,-0.43 0.08,-0.75 0.24,-0.94 0.14,-0.18 0.33,-0.26 0.57,-0.26 0.17,0 0.32,0.05 0.43,0.15 0.11,0.1 0.18,0.23 0.2,0.41l0 0zm-1.12 0.96c0,0.1 0.02,0.19 0.06,0.28 0.04,0.09 0.1,0.15 0.17,0.19 0.07,0.05 0.15,0.07 0.23,0.07 0.11,0 0.21,-0.05 0.3,-0.14 0.08,-0.09 0.12,-0.22 0.12,-0.38 0,-0.16 -0.04,-0.28 -0.12,-0.37 -0.09,-0.09 -0.19,-0.13 -0.31,-0.13 -0.13,0 -0.23,0.04 -0.32,0.13 -0.09,0.09 -0.13,0.21 -0.13,0.35l0 0z"/>
  </g>
  <g id="_2730512929328">
   <path class="fil1" d="M10.08 43.66c0,-0.27 0.02,-0.48 0.08,-0.65 0.05,-0.16 0.13,-0.28 0.24,-0.37 0.11,-0.09 0.24,-0.13 0.41,-0.13 0.12,0 0.22,0.02 0.32,0.07 0.09,0.05 0.16,0.12 0.22,0.21 0.06,0.09 0.1,0.21 0.14,0.34 0.03,0.13 0.05,0.3 0.05,0.53 0,0.26 -0.03,0.47 -0.08,0.63 -0.05,0.16 -0.14,0.29 -0.24,0.38 -0.11,0.09 -0.25,0.13 -0.41,0.13 -0.22,0 -0.39,-0.08 -0.51,-0.23 -0.15,-0.19 -0.22,-0.49 -0.22,-0.91l0 0zm0.28 0c0,0.36 0.04,0.61 0.13,0.73 0.09,0.12 0.19,0.18 0.32,0.18 0.13,0 0.23,-0.06 0.32,-0.18 0.08,-0.12 0.13,-0.37 0.13,-0.73 0,-0.37 -0.05,-0.62 -0.13,-0.74 -0.09,-0.12 -0.2,-0.18 -0.33,-0.18 -0.12,0 -0.22,0.05 -0.3,0.16 -0.09,0.13 -0.14,0.39 -0.14,0.76l0 0z"/>
  </g>
  <g id="_2730512929904">
   <path class="fil1" d="M11.82 43.66c0,-0.27 0.03,-0.48 0.08,-0.65 0.06,-0.16 0.14,-0.28 0.25,-0.37 0.1,-0.09 0.24,-0.13 0.4,-0.13 0.12,0 0.23,0.02 0.32,0.07 0.09,0.05 0.16,0.12 0.22,0.21 0.06,0.09 0.11,0.21 0.14,0.34 0.04,0.13 0.05,0.3 0.05,0.53 0,0.26 -0.03,0.47 -0.08,0.63 -0.05,0.16 -0.13,0.29 -0.24,0.38 -0.11,0.09 -0.25,0.13 -0.41,0.13 -0.22,0 -0.38,-0.08 -0.51,-0.23 -0.15,-0.19 -0.22,-0.49 -0.22,-0.91l0 0zm0.28 0c0,0.36 0.05,0.61 0.13,0.73 0.09,0.12 0.19,0.18 0.32,0.18 0.13,0 0.23,-0.06 0.32,-0.18 0.09,-0.12 0.13,-0.37 0.13,-0.73 0,-0.37 -0.04,-0.62 -0.13,-0.74 -0.09,-0.12 -0.2,-0.18 -0.32,-0.18 -0.13,0 -0.23,0.05 -0.31,0.16 -0.09,0.13 -0.14,0.39 -0.14,0.76l0 0z"/>
  </g>
  <g id="_2730512928656">
   <path class="fil1" d="M8.76 33.94c-0.12,-0.04 -0.2,-0.1 -0.25,-0.18 -0.06,-0.07 -0.09,-0.17 -0.09,-0.28 0,-0.16 0.06,-0.3 0.18,-0.41 0.12,-0.11 0.27,-0.17 0.47,-0.17 0.19,0 0.35,0.06 0.47,0.17 0.12,0.12 0.18,0.26 0.18,0.42 0,0.11 -0.03,0.2 -0.08,0.27 -0.06,0.08 -0.14,0.14 -0.26,0.18 0.14,0.04 0.25,0.11 0.32,0.22 0.07,0.1 0.11,0.22 0.11,0.35 0,0.2 -0.07,0.36 -0.2,0.49 -0.14,0.13 -0.32,0.19 -0.54,0.19 -0.22,0 -0.4,-0.06 -0.53,-0.19 -0.14,-0.13 -0.21,-0.3 -0.21,-0.49 0,-0.15 0.04,-0.27 0.11,-0.37 0.08,-0.1 0.18,-0.17 0.32,-0.2l0 0zm-0.06 -0.46c0,0.1 0.04,0.19 0.11,0.25 0.07,0.07 0.15,0.1 0.26,0.1 0.11,0 0.19,-0.03 0.26,-0.09 0.07,-0.07 0.11,-0.16 0.11,-0.25 0,-0.1 -0.04,-0.19 -0.11,-0.26 -0.07,-0.07 -0.16,-0.1 -0.26,-0.1 -0.11,0 -0.19,0.03 -0.26,0.1 -0.07,0.07 -0.11,0.15 -0.11,0.25l0 0zm-0.08 1.03c0,0.08 0.01,0.15 0.05,0.23 0.04,0.07 0.09,0.13 0.17,0.17 0.07,0.04 0.15,0.06 0.23,0.06 0.14,0 0.24,-0.04 0.33,-0.13 0.09,-0.09 0.13,-0.19 0.13,-0.32 0,-0.13 -0.05,-0.24 -0.13,-0.33 -0.09,-0.09 -0.21,-0.13 -0.34,-0.13 -0.13,0 -0.23,0.04 -0.32,0.13 -0.08,0.08 -0.12,0.19 -0.12,0.32l0 0z"/>
  </g>
  <g id="_2730512929520">
   <path class="fil1" d="M10.08 34.05c0,-0.27 0.02,-0.48 0.08,-0.64 0.05,-0.16 0.13,-0.29 0.24,-0.37 0.11,-0.09 0.24,-0.14 0.41,-0.14 0.12,0 0.22,0.03 0.32,0.08 0.09,0.04 0.16,0.11 0.22,0.21 0.06,0.09 0.1,0.2 0.14,0.33 0.03,0.13 0.05,0.31 0.05,0.53 0,0.27 -0.03,0.48 -0.08,0.63 -0.05,0.17 -0.14,0.29 -0.24,0.38 -0.11,0.09 -0.25,0.13 -0.41,0.13 -0.22,0 -0.39,-0.07 -0.51,-0.23 -0.15,-0.19 -0.22,-0.49 -0.22,-0.91l0 0zm0.28 0c0,0.37 0.04,0.61 0.13,0.74 0.09,0.12 0.19,0.18 0.32,0.18 0.13,0 0.23,-0.06 0.32,-0.19 0.08,-0.12 0.13,-0.36 0.13,-0.73 0,-0.37 -0.05,-0.61 -0.13,-0.73 -0.09,-0.13 -0.2,-0.19 -0.33,-0.19 -0.12,0 -0.22,0.06 -0.3,0.16 -0.09,0.14 -0.14,0.39 -0.14,0.76l0 0z"/>
  </g>
  <g id="_2730512929568">
   <path class="fil1" d="M11.82 34.05c0,-0.27 0.03,-0.48 0.08,-0.64 0.06,-0.16 0.14,-0.29 0.25,-0.37 0.1,-0.09 0.24,-0.14 0.4,-0.14 0.12,0 0.23,0.03 0.32,0.08 0.09,0.04 0.16,0.11 0.22,0.21 0.06,0.09 0.11,0.2 0.14,0.33 0.04,0.13 0.05,0.31 0.05,0.53 0,0.27 -0.03,0.48 -0.08,0.63 -0.05,0.17 -0.13,0.29 -0.24,0.38 -0.11,0.09 -0.25,0.13 -0.41,0.13 -0.22,0 -0.38,-0.07 -0.51,-0.23 -0.15,-0.19 -0.22,-0.49 -0.22,-0.91l0 0zm0.28 0c0,0.37 0.05,0.61 0.13,0.74 0.09,0.12 0.19,0.18 0.32,0.18 0.13,0 0.23,-0.06 0.32,-0.19 0.09,-0.12 0.13,-0.36 0.13,-0.73 0,-0.37 -0.04,-0.61 -0.13,-0.73 -0.09,-0.13 -0.2,-0.19 -0.32,-0.19 -0.13,0 -0.23,0.06 -0.31,0.16 -0.09,0.14 -0.14,0.39 -0.14,0.76l0 0z"/>
  </g>
  <g id="_2730512925920">
   <path class="fil1" d="M11.82 24.7c0,-0.26 0.03,-0.48 0.08,-0.64 0.06,-0.16 0.14,-0.29 0.25,-0.37 0.1,-0.09 0.24,-0.14 0.4,-0.14 0.12,0 0.23,0.03 0.32,0.08 0.09,0.05 0.16,0.12 0.22,0.21 0.06,0.09 0.11,0.2 0.14,0.33 0.04,0.13 0.05,0.31 0.05,0.53 0,0.27 -0.03,0.48 -0.08,0.64 -0.05,0.16 -0.13,0.29 -0.24,0.37 -0.11,0.09 -0.25,0.14 -0.41,0.14 -0.22,0 -0.38,-0.08 -0.51,-0.24 -0.15,-0.18 -0.22,-0.49 -0.22,-0.91l0 0zm0.28 0c0,0.37 0.05,0.61 0.13,0.74 0.09,0.12 0.19,0.18 0.32,0.18 0.13,0 0.23,-0.06 0.32,-0.19 0.09,-0.12 0.13,-0.36 0.13,-0.73 0,-0.37 -0.04,-0.61 -0.13,-0.73 -0.09,-0.13 -0.2,-0.19 -0.32,-0.19 -0.13,0 -0.23,0.06 -0.31,0.16 -0.09,0.14 -0.14,0.39 -0.14,0.76l0 0z"/>
  </g>
  <g id="_2730512925104">
   <path class="fil2" d="M22.84 12.61c0.82,-0.64 1.61,-1.17 2.51,-1.77l0 97.51 -2.51 -1.2c0,-32.5 0,-62.04 0,-94.54l0 0z"/>
  </g>
  <g id="_2730512925728">
   <path class="fil2" d="M51.94 1.39c0.84,-0.1 1.68,-0.13 2.52,-0.2l0 117.16 -2.52 0 0 -116.96 0 0z"/>
  </g>
  <g id="_2730512924384">
   <path class="fil2" d="M81.29 5.7c0.85,0.33 1.68,0.68 2.52,1.07l0 106.03 -2.52 1.01 0 -108.11 0 0z"/>
  </g>
  <g id="_2730512990048">
   <path class="fil2" d="M109.59 31.49c0.93,1.15 1.77,3.95 2.52,5.16l0 46.54 -2.52 4.78 0 -56.48 0 0z"/>
  </g>
  <g id="_2730512989136">
   <path class="fil2" d="M4.43 35.21l105.99 0 0 1.98 -106.81 0c0.26,-0.67 0.53,-1.32 0.82,-1.98l0 0z"/>
  </g>
  <g id="_2730512989904">
   <path class="fil2" d="M-0.75 64.64l117.19 0 0 1.98 -117.01 0c-0.06,-0.66 -0.14,-1.32 -0.18,-1.98l0 0z"/>
  </g>
  <g id="_2730512988944">
   <polygon class="fil2" points="9.93,94.06 105.73,94.06 104.4,96.05 11.25,96.05 "/>
  </g>
  <g id="_2730512978336">
   <path class="fil2" d="M34.87 5.68l46.47 0 0 1.98 -50.65 0c1.39,-0.73 2.69,-1.37 4.18,-1.98l0 0z"/>
  </g>
  <g id="_2730512977472">
   <path class="fil1" d="M9.16 77.27l0 0.82 -3.11 0c0.03,-0.31 0.13,-0.61 0.3,-0.88 0.17,-0.28 0.5,-0.65 1,-1.12 0.4,-0.37 0.65,-0.62 0.74,-0.75 0.12,-0.19 0.18,-0.37 0.18,-0.55 0,-0.2 -0.05,-0.35 -0.16,-0.45 -0.11,-0.11 -0.25,-0.16 -0.44,-0.16 -0.19,0 -0.33,0.05 -0.44,0.16 -0.11,0.12 -0.18,0.3 -0.19,0.56l-0.89 -0.09c0.06,-0.49 0.22,-0.84 0.5,-1.05 0.28,-0.21 0.62,-0.32 1.04,-0.32 0.46,0 0.82,0.12 1.08,0.37 0.26,0.25 0.39,0.55 0.39,0.92 0,0.21 -0.04,0.41 -0.11,0.6 -0.08,0.18 -0.19,0.38 -0.36,0.59 -0.1,0.13 -0.3,0.33 -0.58,0.59 -0.28,0.25 -0.46,0.43 -0.53,0.51 -0.08,0.08 -0.14,0.17 -0.18,0.25l1.76 0 0 0z"/>
   <path class="fil1" d="M11.26 73.44c0.45,0 0.8,0.16 1.05,0.48 0.31,0.38 0.46,1.01 0.46,1.89 0,0.87 -0.15,1.5 -0.46,1.89 -0.25,0.31 -0.6,0.47 -1.05,0.47 -0.45,0 -0.81,-0.17 -1.09,-0.52 -0.27,-0.35 -0.41,-0.96 -0.41,-1.85 0,-0.87 0.15,-1.5 0.45,-1.89 0.25,-0.31 0.6,-0.47 1.05,-0.47zm0 0.74c-0.11,0 -0.2,0.03 -0.28,0.1 -0.09,0.07 -0.15,0.19 -0.2,0.37 -0.06,0.23 -0.09,0.61 -0.09,1.16 0,0.54 0.02,0.91 0.08,1.12 0.05,0.2 0.12,0.34 0.21,0.4 0.08,0.07 0.17,0.11 0.28,0.11 0.11,0 0.21,-0.04 0.29,-0.11 0.08,-0.07 0.15,-0.19 0.2,-0.37 0.06,-0.22 0.09,-0.61 0.09,-1.15 0,-0.55 -0.03,-0.92 -0.08,-1.12 -0.06,-0.21 -0.13,-0.34 -0.21,-0.41 -0.09,-0.07 -0.18,-0.1 -0.29,-0.1z"/>
   <path class="fil1" d="M14.86 73.44c0.45,0 0.8,0.16 1.05,0.48 0.3,0.38 0.46,1.01 0.46,1.89 0,0.87 -0.16,1.5 -0.46,1.89 -0.25,0.31 -0.6,0.47 -1.05,0.47 -0.45,0 -0.81,-0.17 -1.09,-0.52 -0.27,-0.35 -0.41,-0.96 -0.41,-1.85 0,-0.87 0.15,-1.5 0.45,-1.89 0.25,-0.31 0.6,-0.47 1.05,-0.47zm0 0.74c-0.11,0 -0.2,0.03 -0.29,0.1 -0.08,0.07 -0.15,0.19 -0.19,0.37 -0.06,0.23 -0.09,0.61 -0.09,1.16 0,0.54 0.02,0.91 0.08,1.12 0.05,0.2 0.12,0.34 0.21,0.4 0.08,0.07 0.17,0.11 0.28,0.11 0.11,0 0.21,-0.04 0.29,-0.11 0.08,-0.07 0.15,-0.19 0.19,-0.37 0.07,-0.22 0.1,-0.61 0.1,-1.15 0,-0.55 -0.03,-0.92 -0.09,-1.12 -0.05,-0.21 -0.12,-0.34 -0.2,-0.41 -0.09,-0.07 -0.18,-0.1 -0.29,-0.1z"/>
   <path class="fil1" d="M16.98 77.02l0.86 -0.09c0.02,0.17 0.07,0.3 0.16,0.38 0.09,0.09 0.21,0.13 0.35,0.13 0.19,0 0.34,-0.08 0.47,-0.25 0.13,-0.17 0.21,-0.52 0.25,-1.05 -0.23,0.26 -0.51,0.39 -0.84,0.39 -0.36,0 -0.68,-0.14 -0.94,-0.42 -0.27,-0.29 -0.4,-0.65 -0.4,-1.1 0,-0.47 0.14,-0.85 0.42,-1.14 0.28,-0.29 0.63,-0.43 1.06,-0.43 0.47,0 0.86,0.18 1.16,0.55 0.3,0.36 0.45,0.96 0.45,1.79 0,0.85 -0.15,1.46 -0.47,1.83 -0.31,0.38 -0.72,0.56 -1.22,0.56 -0.37,0 -0.66,-0.09 -0.88,-0.29 -0.23,-0.19 -0.37,-0.48 -0.43,-0.86zm2.01 -1.94c0,-0.29 -0.07,-0.51 -0.2,-0.67 -0.13,-0.15 -0.28,-0.23 -0.46,-0.23 -0.16,0 -0.3,0.06 -0.4,0.19 -0.11,0.13 -0.17,0.34 -0.17,0.64 0,0.3 0.06,0.52 0.18,0.66 0.12,0.14 0.27,0.21 0.44,0.21 0.17,0 0.32,-0.07 0.43,-0.21 0.12,-0.13 0.18,-0.33 0.18,-0.59z"/>
   <path class="fil1" d="M34.35 77.27l0 0.82 -3.12 0c0.04,-0.31 0.14,-0.61 0.31,-0.88 0.17,-0.28 0.5,-0.65 0.99,-1.12 0.4,-0.37 0.65,-0.62 0.74,-0.75 0.12,-0.19 0.19,-0.37 0.19,-0.55 0,-0.2 -0.06,-0.35 -0.17,-0.45 -0.1,-0.11 -0.25,-0.16 -0.44,-0.16 -0.18,0 -0.33,0.05 -0.44,0.16 -0.11,0.12 -0.17,0.3 -0.19,0.56l-0.88 -0.09c0.05,-0.49 0.22,-0.84 0.49,-1.05 0.28,-0.21 0.63,-0.32 1.05,-0.32 0.45,0 0.81,0.12 1.07,0.37 0.27,0.25 0.4,0.55 0.4,0.92 0,0.21 -0.04,0.41 -0.12,0.6 -0.07,0.18 -0.19,0.38 -0.35,0.59 -0.11,0.13 -0.3,0.33 -0.58,0.59 -0.28,0.25 -0.46,0.43 -0.54,0.51 -0.07,0.08 -0.13,0.17 -0.18,0.25l1.77 0 0 0z"/>
   <path class="fil1" d="M36.45 73.44c0.45,0 0.8,0.16 1.05,0.48 0.3,0.38 0.45,1.01 0.45,1.89 0,0.87 -0.15,1.5 -0.45,1.89 -0.25,0.31 -0.6,0.47 -1.05,0.47 -0.45,0 -0.82,-0.17 -1.09,-0.52 -0.28,-0.35 -0.42,-0.96 -0.42,-1.85 0,-0.87 0.15,-1.5 0.46,-1.89 0.25,-0.31 0.6,-0.47 1.05,-0.47zm0 0.74c-0.11,0 -0.21,0.03 -0.29,0.1 -0.09,0.07 -0.15,0.19 -0.2,0.37 -0.06,0.23 -0.09,0.61 -0.09,1.16 0,0.54 0.03,0.91 0.08,1.12 0.06,0.2 0.13,0.34 0.21,0.4 0.08,0.07 0.18,0.11 0.29,0.11 0.11,0 0.2,-0.04 0.28,-0.11 0.09,-0.07 0.15,-0.19 0.2,-0.37 0.06,-0.22 0.09,-0.61 0.09,-1.15 0,-0.55 -0.02,-0.92 -0.08,-1.12 -0.05,-0.21 -0.12,-0.34 -0.21,-0.41 -0.08,-0.07 -0.17,-0.1 -0.28,-0.1z"/>
   <path class="fil1" d="M40.82 78.09l-0.89 0 0 -3.34c-0.33,0.3 -0.71,0.52 -1.15,0.67l0 -0.81c0.23,-0.07 0.49,-0.22 0.76,-0.43 0.27,-0.21 0.46,-0.46 0.56,-0.74l0.72 0 0 4.65z"/>
   <path class="fil1" d="M45.14 77.27l0 0.82 -3.11 0c0.03,-0.31 0.14,-0.61 0.3,-0.88 0.17,-0.28 0.51,-0.65 1,-1.12 0.4,-0.37 0.65,-0.62 0.74,-0.75 0.12,-0.19 0.18,-0.37 0.18,-0.55 0,-0.2 -0.05,-0.35 -0.16,-0.45 -0.1,-0.11 -0.25,-0.16 -0.44,-0.16 -0.18,0 -0.33,0.05 -0.44,0.16 -0.11,0.12 -0.17,0.3 -0.19,0.56l-0.88 -0.09c0.05,-0.49 0.21,-0.84 0.49,-1.05 0.28,-0.21 0.63,-0.32 1.04,-0.32 0.46,0 0.82,0.12 1.08,0.37 0.26,0.25 0.39,0.55 0.39,0.92 0,0.21 -0.03,0.41 -0.11,0.6 -0.07,0.18 -0.19,0.38 -0.35,0.59 -0.11,0.13 -0.3,0.33 -0.59,0.59 -0.28,0.25 -0.45,0.43 -0.53,0.51 -0.07,0.08 -0.13,0.17 -0.18,0.25l1.76 0 0 0z"/>
   <path class="fil1" d="M64.92 77.27l0 0.82 -3.11 0c0.04,-0.31 0.14,-0.61 0.31,-0.88 0.16,-0.28 0.5,-0.65 0.99,-1.12 0.4,-0.37 0.65,-0.62 0.74,-0.75 0.12,-0.19 0.18,-0.37 0.18,-0.55 0,-0.2 -0.05,-0.35 -0.16,-0.45 -0.1,-0.11 -0.25,-0.16 -0.44,-0.16 -0.18,0 -0.33,0.05 -0.44,0.16 -0.11,0.12 -0.17,0.3 -0.19,0.56l-0.88 -0.09c0.05,-0.49 0.21,-0.84 0.49,-1.05 0.28,-0.21 0.63,-0.32 1.05,-0.32 0.45,0 0.81,0.12 1.07,0.37 0.26,0.25 0.39,0.55 0.39,0.92 0,0.21 -0.03,0.41 -0.11,0.6 -0.07,0.18 -0.19,0.38 -0.35,0.59 -0.11,0.13 -0.3,0.33 -0.58,0.59 -0.29,0.25 -0.46,0.43 -0.54,0.51 -0.07,0.08 -0.13,0.17 -0.18,0.25l1.76 0 0 0z"/>
   <path class="fil1" d="M67.03 73.44c0.44,0 0.8,0.16 1.05,0.48 0.3,0.38 0.45,1.01 0.45,1.89 0,0.87 -0.15,1.5 -0.45,1.89 -0.26,0.31 -0.61,0.47 -1.05,0.47 -0.45,0 -0.82,-0.17 -1.09,-0.52 -0.28,-0.35 -0.42,-0.96 -0.42,-1.85 0,-0.87 0.15,-1.5 0.46,-1.89 0.25,-0.31 0.6,-0.47 1.05,-0.47zm0 0.74c-0.11,0 -0.21,0.03 -0.29,0.1 -0.09,0.07 -0.15,0.19 -0.2,0.37 -0.06,0.23 -0.09,0.61 -0.09,1.16 0,0.54 0.03,0.91 0.08,1.12 0.06,0.2 0.13,0.34 0.21,0.4 0.08,0.07 0.18,0.11 0.29,0.11 0.1,0 0.2,-0.04 0.28,-0.11 0.09,-0.07 0.15,-0.19 0.2,-0.37 0.06,-0.22 0.09,-0.61 0.09,-1.15 0,-0.55 -0.03,-0.92 -0.08,-1.12 -0.06,-0.21 -0.12,-0.34 -0.21,-0.41 -0.08,-0.07 -0.18,-0.1 -0.28,-0.1z"/>
   <path class="fil1" d="M71.4 78.09l-0.89 0 0 -3.34c-0.33,0.3 -0.71,0.52 -1.15,0.67l0 -0.81c0.23,-0.07 0.48,-0.22 0.76,-0.43 0.27,-0.21 0.45,-0.46 0.56,-0.74l0.72 0 0 4.65z"/>
   <path class="fil1" d="M74.47 78.09l0 -0.93 -1.9 0 0 -0.78 2.01 -2.94 0.74 0 0 2.94 0.58 0 0 0.78 -0.58 0 0 0.93 -0.85 0zm0 -1.71l0 -1.58 -1.07 1.58 1.07 0z"/>
   <path class="fil1" d="M93.7 77.27l0 0.82 -3.11 0c0.04,-0.31 0.14,-0.61 0.31,-0.88 0.17,-0.28 0.5,-0.65 0.99,-1.12 0.4,-0.37 0.65,-0.62 0.74,-0.75 0.12,-0.19 0.18,-0.37 0.18,-0.55 0,-0.2 -0.05,-0.35 -0.16,-0.45 -0.1,-0.11 -0.25,-0.16 -0.44,-0.16 -0.18,0 -0.33,0.05 -0.44,0.16 -0.11,0.12 -0.17,0.3 -0.19,0.56l-0.88 -0.09c0.05,-0.49 0.22,-0.84 0.49,-1.05 0.28,-0.21 0.63,-0.32 1.05,-0.32 0.45,0 0.81,0.12 1.07,0.37 0.27,0.25 0.39,0.55 0.39,0.92 0,0.21 -0.03,0.41 -0.11,0.6 -0.07,0.18 -0.19,0.38 -0.35,0.59 -0.11,0.13 -0.3,0.33 -0.58,0.59 -0.28,0.25 -0.46,0.43 -0.54,0.51 -0.07,0.08 -0.13,0.17 -0.18,0.25l1.76 0 0 0z"/>
   <path class="fil1" d="M95.81 73.44c0.45,0 0.8,0.16 1.05,0.48 0.3,0.38 0.45,1.01 0.45,1.89 0,0.87 -0.15,1.5 -0.45,1.89 -0.25,0.31 -0.61,0.47 -1.05,0.47 -0.45,0 -0.82,-0.17 -1.09,-0.52 -0.28,-0.35 -0.42,-0.96 -0.42,-1.85 0,-0.87 0.15,-1.5 0.46,-1.89 0.25,-0.31 0.6,-0.47 1.05,-0.47zm0 0.74c-0.11,0 -0.21,0.03 -0.29,0.1 -0.09,0.07 -0.15,0.19 -0.2,0.37 -0.06,0.23 -0.09,0.61 -0.09,1.16 0,0.54 0.03,0.91 0.08,1.12 0.06,0.2 0.13,0.34 0.21,0.4 0.08,0.07 0.18,0.11 0.29,0.11 0.1,0 0.2,-0.04 0.28,-0.11 0.09,-0.07 0.15,-0.19 0.2,-0.37 0.06,-0.22 0.09,-0.61 0.09,-1.15 0,-0.55 -0.03,-0.92 -0.08,-1.12 -0.05,-0.21 -0.12,-0.34 -0.21,-0.41 -0.08,-0.07 -0.18,-0.1 -0.28,-0.1z"/>
   <path class="fil1" d="M100.18 78.09l-0.89 0 0 -3.34c-0.33,0.3 -0.71,0.52 -1.15,0.67l0 -0.81c0.23,-0.07 0.49,-0.22 0.76,-0.43 0.27,-0.21 0.45,-0.46 0.56,-0.74l0.72 0 0 4.65z"/>
   <path class="fil1" d="M104.51 74.59l-0.86 0.1c-0.02,-0.18 -0.07,-0.31 -0.16,-0.39 -0.09,-0.09 -0.2,-0.13 -0.35,-0.13 -0.18,0 -0.34,0.09 -0.47,0.25 -0.13,0.17 -0.21,0.52 -0.25,1.06 0.22,-0.27 0.5,-0.4 0.83,-0.4 0.37,0 0.69,0.14 0.95,0.43 0.27,0.28 0.4,0.64 0.4,1.09 0,0.47 -0.14,0.86 -0.42,1.14 -0.28,0.29 -0.63,0.43 -1.07,0.43 -0.47,0 -0.85,-0.18 -1.15,-0.54 -0.31,-0.37 -0.46,-0.96 -0.46,-1.79 0,-0.85 0.16,-1.46 0.48,-1.84 0.31,-0.37 0.72,-0.56 1.22,-0.56 0.35,0 0.64,0.1 0.87,0.3 0.23,0.19 0.38,0.48 0.44,0.85zm-2.01 1.94c0,0.29 0.07,0.51 0.2,0.67 0.13,0.16 0.28,0.24 0.45,0.24 0.17,0 0.31,-0.07 0.42,-0.2 0.1,-0.13 0.16,-0.34 0.16,-0.63 0,-0.3 -0.06,-0.52 -0.18,-0.66 -0.12,-0.14 -0.26,-0.21 -0.44,-0.21 -0.17,0 -0.32,0.06 -0.43,0.2 -0.12,0.13 -0.18,0.33 -0.18,0.59z"/>
  </g>
 </g>
</svg>
