<?xml version="1.0" encoding="UTF-8"?>
<!DOCTYPE svg PUBLIC "-//W3C//DTD SVG 1.1//EN" "http://www.w3.org/Graphics/SVG/1.1/DTD/svg11.dtd">
<!-- Creator: CorelDRAW 2020 (64-Bit) -->
<svg xmlns="http://www.w3.org/2000/svg" xml:space="preserve" width="118px" height="118px" version="1.1" style="shape-rendering:geometricPrecision; text-rendering:geometricPrecision; image-rendering:optimizeQuality; fill-rule:evenodd; clip-rule:evenodd"
viewBox="0 0 118 118"
 xmlns:xlink="http://www.w3.org/1999/xlink"
 xmlns:xodm="http://www.corel.com/coreldraw/odm/2003">
 <defs>
  <style type="text/css">
   <![CDATA[
    .fil0 {fill:#339966;fill-rule:nonzero}
   ]]>
  </style>
 </defs>
 <g id="Layer_x0020_1">
  <metadata id="CorelCorpID_0Corel-Layer"/>
  <path class="fil0" d="M58.06 0.94c-32.58,0 -59,26.42 -59,59 0,32.58 26.42,59 59,59 32.58,0 59,-26.42 59,-59 0,-32.58 -26.42,-59 -59,-59zm0 37.93c-4.24,0 -7.67,3.05 -7.67,7.28 0,4.23 3.89,5.74 10.54,7.86 12.53,3.99 20.11,9.76 20.11,21.26 0,9.69 -7.33,16.64 -17.24,18.59l0 8.23 -11.49 0 0 -8.42c-9.91,-2.55 -17.24,-11.53 -17.24,-22.23l15.32 0 0 1.91c0,4.24 3.43,7.67 7.67,7.67 4.23,0 7.66,-3.05 7.66,-7.28 0,-4.23 -4.79,-5.94 -10.54,-7.86 -12.33,-3.95 -20.11,-9.77 -20.11,-21.26 0,-9.69 7.33,-16.64 17.24,-18.59l0 -8.23 11.49 0 0 8.42c9.91,2.55 17.24,11.52 17.24,22.23l-15.32 0 0 -1.92c0,-4.23 -3.43,-7.66 -7.66,-7.66z"/>
 </g>
</svg>
