<?xml version="1.0" encoding="UTF-8"?>
<!DOCTYPE svg PUBLIC "-//W3C//DTD SVG 1.1//EN" "http://www.w3.org/Graphics/SVG/1.1/DTD/svg11.dtd">
<!-- Creator: CorelDRAW 2020 (64-Bit) -->
<svg xmlns="http://www.w3.org/2000/svg" xml:space="preserve" width="118px" height="118px" version="1.1" style="shape-rendering:geometricPrecision; text-rendering:geometricPrecision; image-rendering:optimizeQuality; fill-rule:evenodd; clip-rule:evenodd"
viewBox="0 0 118 118"
 xmlns:xlink="http://www.w3.org/1999/xlink"
 xmlns:xodm="http://www.corel.com/coreldraw/odm/2003">
 <defs>
  <style type="text/css">
   <![CDATA[
    .fil2 {fill:#FEFEFE}
    .fil0 {fill:#ED3237}
    .fil1 {fill:#4355A3}
   ]]>
  </style>
 </defs>
 <g id="Layer_x0020_1">
  <metadata id="CorelCorpID_0Corel-Layer"/>
  <g id="_2030482202224">
   <g>
    <path class="fil0" d="M58.06 0.94c32.58,0 59,26.42 59,59l-118 0c0,-32.58 26.41,-59 59,-59z"/>
    <path class="fil1" d="M58.06 118.94c32.58,0 59,-26.41 59,-59l-118 0c0,32.59 26.41,59 59,59z"/>
   </g>
   <g>
    <g>
     <path class="fil2" d="M37.89 25.91l-15.88 0c-3.09,0 -5.63,2.53 -5.63,5.63l0 16.74c0,3.09 2.54,5.62 5.63,5.62l15.88 0 0 -4.21 -14.5 0c-0.91,0 -1.66,-0.74 -1.66,-1.65l0 -5.97 13.02 0 0 -4.33 -13.02 0 0 -5.85c0,-0.91 0.75,-1.66 1.66,-1.66l14.5 0 0 -4.32z"/>
     <path class="fil2" d="M55.74 45.43l-8.99 0c-1.16,0 -2.11,0.95 -2.11,2.11 0,1.25 0.81,2.28 2.11,2.28l8.99 0 0 -4.39zm3.47 8.49c-4.45,0 -8.91,0 -13.36,0 -3.41,0 -6.2,-2.79 -6.2,-6.2 0,-3.47 2.68,-6.31 6.2,-6.31 3.29,0 6.59,0 9.89,0l0 -2.24c0,-0.78 -0.64,-1.41 -1.41,-1.41l-10.58 0 0 -4.15 11.24 0c3.1,0 5.63,2.54 5.63,5.63l0 13.27c0,0.77 -0.63,1.41 -1.41,1.41z"/>
     <path class="fil2" d="M80.53 33.62l-11.83 0c-3.38,0 -6.14,2.73 -6.14,6.07l0 0c0,3.34 2.76,6.07 6.14,6.07 1.99,0 3.99,0 5.98,0 2.76,0 2.76,4.13 0,4.13l-11.14 0 0 4.01 11.46 0c8.77,0 8.82,-12.07 0.03,-12.15 -1.99,-0.01 -3.64,0 -5.64,0 -1.15,0 -2.09,-0.92 -2.09,-2.06l0 0c0,-1.14 0.94,-2.07 2.09,-2.07l11.14 0 0 -4z"/>
     <path class="fil2" d="M83.81 33.63l4.91 0 0 14.26c0,1.08 0.88,1.97 1.97,1.97l7.3 0 0 -16.23 4.55 0 0 22.82c0,3.18 -2.6,5.77 -5.77,5.77l-11.52 0 0 -4.05 10.58 0c1.24,0 2.25,-1.01 2.25,-2.25l0 -1.97 -7.66 0c-3.64,0 -6.61,-2.98 -6.61,-6.61l0 -13.71z"/>
    </g>
    <path class="fil2" d="M56.14 82.66l-8.98 0c-1.16,0 -2.11,0.95 -2.11,2.11 0,1.25 0.8,2.28 2.11,2.28l8.98 0 0 -4.39zm3.48 8.49c-4.46,0 -8.91,0 -13.37,0 -3.41,0 -6.19,-2.79 -6.19,-6.19 0,-3.48 2.68,-6.32 6.19,-6.32 3.3,0 6.59,0 9.89,0l0 -2.24c0,-0.78 -0.63,-1.41 -1.41,-1.41l-10.58 0 0 -4.15 11.25 0c3.09,0 5.63,2.54 5.63,5.63l0 13.27c0,0.77 -0.64,1.41 -1.41,1.41z"/>
    <path class="fil2" d="M63.55 70.86l4.92 0 0 14.26c0,1.08 0.88,1.97 1.97,1.97l7.3 0 0 -16.23 4.55 0 0 22.83c0,3.17 -2.6,5.77 -5.77,5.77l-11.52 0 0 -4.06 10.58 0c1.24,0 2.25,-1.01 2.25,-2.25l0 -1.97 -7.66 0c-3.64,0 -6.62,-2.97 -6.62,-6.61l0 -13.71z"/>
    <path class="fil2" d="M17.89 62.92l17.55 0c3.4,0 6.19,2.78 6.19,6.19l0 5.42c0,3.4 -2.79,6.19 -6.19,6.19l-12.55 0 0 10.34 -5 0c0,-9.38 0,-18.76 0,-28.14zm5 4.53l11.54 0c1.08,0 1.97,0.89 1.97,1.97l0 5.08c0,1.09 -0.89,1.97 -1.97,1.97l-11.54 0 0 -9.02z"/>
   </g>
  </g>
 </g>
</svg>
