<?xml version="1.0" encoding="UTF-8"?>
<!DOCTYPE svg PUBLIC "-//W3C//DTD SVG 1.1//EN" "http://www.w3.org/Graphics/SVG/1.1/DTD/svg11.dtd">
<!-- Creator: CorelDRAW 2020 (64-Bit) -->
<svg xmlns="http://www.w3.org/2000/svg" xml:space="preserve" width="118px" height="118px" version="1.1" style="shape-rendering:geometricPrecision; text-rendering:geometricPrecision; image-rendering:optimizeQuality; fill-rule:evenodd; clip-rule:evenodd"
viewBox="0 0 118 118"
 xmlns:xlink="http://www.w3.org/1999/xlink"
 xmlns:xodm="http://www.corel.com/coreldraw/odm/2003">
 <defs>
  <style type="text/css">
   <![CDATA[
    .fil0 {fill:#005188}
    .fil1 {fill:white;fill-rule:nonzero}
   ]]>
  </style>
 </defs>
 <g id="Layer_x0020_1">
  <metadata id="CorelCorpID_0Corel-Layer"/>
  <g id="_2730508617120">
   <circle class="fil0" cx="58.06" cy="59.94" r="59"/>
   <path class="fil1" d="M23.09 60.79l-8.13 0 0 4.46c0,0.93 0.06,1.54 0.2,1.81 0.13,0.27 0.39,0.4 0.78,0.4 0.48,0 0.81,-0.18 0.96,-0.53 0.17,-0.37 0.25,-1.06 0.25,-2.09l0 -2.72 5.94 0 0 1.53c0,1.27 -0.08,2.25 -0.24,2.94 -0.16,0.68 -0.54,1.41 -1.13,2.19 -0.58,0.78 -1.34,1.36 -2.24,1.75 -0.91,0.39 -2.04,0.59 -3.41,0.59 -1.32,0 -2.49,-0.19 -3.51,-0.58 -1.01,-0.38 -1.8,-0.91 -2.37,-1.57 -0.56,-0.67 -0.95,-1.41 -1.17,-2.21 -0.21,-0.8 -0.33,-1.97 -0.33,-3.5l0 -6.02c0,-1.8 0.25,-3.22 0.73,-4.26 0.49,-1.04 1.29,-1.84 2.39,-2.39 1.12,-0.56 2.39,-0.83 3.83,-0.83 1.76,0 3.21,0.33 4.35,1 1.15,0.67 1.95,1.55 2.41,2.65 0.46,1.1 0.69,2.65 0.69,4.65l0 2.73zm-6.26 -3.34l0 -1.51c0,-1.07 -0.06,-1.75 -0.17,-2.06 -0.12,-0.31 -0.36,-0.47 -0.72,-0.47 -0.44,0 -0.72,0.13 -0.83,0.4 -0.1,0.26 -0.15,0.98 -0.15,2.13l0 1.51 1.87 0zm8.49 -11.86l6.59 0c1.78,0 3.14,0.14 4.1,0.42 0.95,0.28 1.68,0.69 2.16,1.21 0.48,0.53 0.8,1.17 0.98,1.92 0.17,0.75 0.25,1.91 0.25,3.48l0 2.19c0,1.6 -0.16,2.77 -0.5,3.5 -0.32,0.74 -0.93,1.31 -1.81,1.7 -0.89,0.39 -2.04,0.59 -3.47,0.59l-1.75 0 0 10.13 -6.55 0 0 -25.14zm6.55 4.29l0 6.41c0.18,0.01 0.34,0.01 0.48,0.01 0.59,0 1.01,-0.14 1.24,-0.44 0.23,-0.29 0.35,-0.91 0.35,-1.84l0 -2.07c0,-0.86 -0.14,-1.42 -0.41,-1.68 -0.26,-0.26 -0.82,-0.39 -1.66,-0.39zm14.81 8.24l-5.88 0 0 -1.39c0,-1.59 0.19,-2.82 0.55,-3.69 0.37,-0.86 1.11,-1.63 2.22,-2.29 1.1,-0.66 2.54,-0.99 4.31,-0.99 2.12,0 3.72,0.37 4.8,1.13 1.07,0.74 1.72,1.66 1.94,2.76 0.21,1.09 0.32,3.34 0.32,6.74l0 10.34 -6.1 0 0 -1.83c-0.38,0.74 -0.88,1.29 -1.48,1.66 -0.61,0.37 -1.33,0.56 -2.17,0.56 -1.09,0 -2.1,-0.31 -3.02,-0.93 -0.91,-0.62 -1.37,-1.96 -1.37,-4.04l0 -1.7c0,-1.54 0.24,-2.59 0.73,-3.15 0.49,-0.56 1.7,-1.21 3.63,-1.95 2.06,-0.81 3.16,-1.36 3.3,-1.64 0.15,-0.28 0.22,-0.84 0.22,-1.71 0,-1.07 -0.08,-1.77 -0.24,-2.1 -0.16,-0.32 -0.43,-0.49 -0.81,-0.49 -0.43,0 -0.69,0.14 -0.79,0.42 -0.11,0.27 -0.16,0.98 -0.16,2.13l0 2.16zm2 2.82c-1.01,0.74 -1.6,1.35 -1.76,1.85 -0.16,0.5 -0.24,1.21 -0.24,2.14 0,1.07 0.07,1.75 0.21,2.06 0.14,0.32 0.42,0.47 0.84,0.47 0.4,0 0.65,-0.12 0.77,-0.37 0.12,-0.24 0.18,-0.87 0.18,-1.91l0 -4.24zm21.54 -10.8l-1.79 14.9c-0.29,2.36 -0.53,3.97 -0.72,4.83 -0.19,0.86 -0.51,1.57 -0.95,2.13 -0.44,0.56 -1.06,0.96 -1.85,1.23 -0.79,0.26 -2.06,0.4 -3.79,0.4l-3.8 0 0 -3.31c0.98,0 1.6,-0.05 1.88,-0.15 0.28,-0.09 0.42,-0.32 0.42,-0.65 0,-0.17 -0.13,-0.89 -0.39,-2.16l-3.43 -17.22 5.68 0 2.06 13.93 1.01 -13.93 5.67 0zm4.75 15.48l0 5.11 -4.74 0 0 -5.11 4.74 0zm7.93 -20.03l0 5.96c0.52,-0.6 1.09,-1.05 1.73,-1.35 0.64,-0.29 1.33,-0.44 2.08,-0.44 0.86,0 1.61,0.13 2.24,0.4 0.63,0.27 1.11,0.65 1.45,1.13 0.33,0.49 0.53,0.97 0.6,1.43 0.07,0.47 0.1,1.47 0.1,2.99l0 9.29c0,1.51 -0.1,2.64 -0.3,3.37 -0.21,0.74 -0.68,1.38 -1.43,1.93 -0.75,0.55 -1.64,0.82 -2.66,0.82 -0.74,0 -1.43,-0.17 -2.07,-0.49 -0.64,-0.32 -1.22,-0.81 -1.75,-1.45l-0.41 1.55 -5.84 0 0 -25.14 6.26 0zm1.94 10.4c0,-1.07 -0.07,-1.76 -0.21,-2.09 -0.13,-0.32 -0.4,-0.49 -0.8,-0.49 -0.39,0 -0.64,0.15 -0.76,0.43 -0.11,0.28 -0.17,1 -0.17,2.15l0 8.88c0,1.11 0.06,1.82 0.19,2.12 0.14,0.32 0.4,0.47 0.79,0.47 0.39,0 0.65,-0.16 0.78,-0.48 0.12,-0.32 0.18,-1.09 0.18,-2.31l0 -8.68zm22.58 -5.85l0 15.86c0,2.14 -0.05,3.53 -0.15,4.16 -0.1,0.62 -0.45,1.28 -1.05,1.98 -0.6,0.7 -1.44,1.24 -2.51,1.6 -1.07,0.37 -2.43,0.55 -4.05,0.55 -2,0 -3.61,-0.33 -4.82,-1.01 -1.22,-0.68 -1.84,-2.02 -1.88,-4.01l6.07 0c0,0.91 0.34,1.37 1.01,1.37 0.49,0 0.81,-0.14 0.97,-0.42 0.16,-0.28 0.24,-0.87 0.24,-1.76l0 -1.56c-0.54,0.49 -1.11,0.86 -1.7,1.11 -0.6,0.24 -1.23,0.37 -1.88,0.37 -1.14,0 -2.07,-0.23 -2.8,-0.68 -0.74,-0.46 -1.24,-1.05 -1.51,-1.79 -0.27,-0.74 -0.4,-1.8 -0.4,-3.16l0 -7.48c0,-1.96 0.35,-3.37 1.06,-4.23 0.71,-0.85 1.79,-1.28 3.23,-1.28 0.79,0 1.51,0.16 2.16,0.48 0.66,0.33 1.24,0.81 1.75,1.46l0.44 -1.56 5.82 0zm-6.26 5.46c0,-0.94 -0.06,-1.54 -0.17,-1.8 -0.11,-0.26 -0.36,-0.39 -0.74,-0.39 -0.38,0 -0.65,0.15 -0.8,0.44 -0.15,0.3 -0.23,0.88 -0.23,1.75l0 6.92c0,0.93 0.06,1.52 0.17,1.79 0.12,0.28 0.37,0.42 0.74,0.42 0.43,0 0.71,-0.17 0.84,-0.5 0.12,-0.33 0.19,-1.08 0.19,-2.25l0 -6.38z"/>
  </g>
 </g>
</svg>
