<?xml version="1.0" encoding="UTF-8"?>
<!DOCTYPE svg PUBLIC "-//W3C//DTD SVG 1.1//EN" "http://www.w3.org/Graphics/SVG/1.1/DTD/svg11.dtd">
<!-- Creator: CorelDRAW 2020 (64-Bit) -->
<svg xmlns="http://www.w3.org/2000/svg" xml:space="preserve" width="118px" height="118px" version="1.1" style="shape-rendering:geometricPrecision; text-rendering:geometricPrecision; image-rendering:optimizeQuality; fill-rule:evenodd; clip-rule:evenodd"
viewBox="0 0 118 118"
 xmlns:xlink="http://www.w3.org/1999/xlink"
 xmlns:xodm="http://www.corel.com/coreldraw/odm/2003">
 <defs>
  <style type="text/css">
   <![CDATA[
    .fil0 {fill:#EC268F}
    .fil1 {fill:white}
   ]]>
  </style>
 </defs>
 <g id="Layer_x0020_1">
  <metadata id="CorelCorpID_0Corel-Layer"/>
  <g id="_2609498025264">
   <circle class="fil0" cx="58.06" cy="59.94" r="59"/>
   <path class="fil1" d="M43.54 99.54l39.23 0c2.57,0 4.67,-2.1 4.67,-4.67l0 -69.85c0,-2.57 -2.1,-4.67 -4.67,-4.67l-39.23 0c-2.57,0 -4.67,2.1 -4.67,4.67l0 16.28 4.85 -6.77 0 -6.8 39.31 0 0 31.32 -36 -25.39 -3.31 4.77 -6.39 9.21 0 0 -10.02 14.44 11.56 8.13 4.85 3.41 0.61 0.43 3.33 2.34 16.53 11.62 -20.47 0 0 -11.45 -4.85 -3.57 0 21.88c0,2.57 2.1,4.67 4.67,4.67zm-32.14 -52.15l-1.61 2.26 14 10.04 1.61 -2.25 -14 -10.05zm15.86 -5.14l-1.62 2.26 5.87 4.21 1.62 -2.25 -5.87 -4.22zm-7.6 2.75l-1.61 2.25 9.82 7.05 1.61 -2.26 -9.82 -7.04zm38.86 25.96l3.14 -4.04c-0.97,-1.34 -1.47,-2.59 -1.49,-3.78 -0.01,-1.19 0.38,-2.3 1.19,-3.34 0.82,-1.05 1.85,-1.68 3.07,-1.88 1.22,-0.2 2.42,0.07 3.6,0.82l0.74 -0.95 1.41 1.09 -0.74 0.95c0.93,0.92 1.48,1.91 1.64,2.96 0.15,1.05 -0.06,2.12 -0.64,3.22l-2.7 -1.59c0.44,-0.88 0.45,-1.69 0.03,-2.45l-2.93 3.76c1.23,1.63 1.87,2.99 1.91,4.09 0.05,1.11 -0.34,2.18 -1.15,3.22 -0.91,1.16 -2.02,1.87 -3.35,2.11 -1.33,0.25 -2.7,-0.02 -4.11,-0.81l-1.4 1.8 -1.41 -1.09 1.39 -1.78c-1,-1 -1.58,-2.11 -1.74,-3.33 -0.16,-1.24 0.16,-2.55 0.94,-3.96l2.74 1.66c-0.3,0.59 -0.45,1.18 -0.45,1.78 -0.01,0.59 0.09,1.1 0.31,1.54zm7.88 -10.13c-0.48,-0.16 -0.95,-0.17 -1.41,-0.03 -0.47,0.14 -0.84,0.39 -1.13,0.77 -0.26,0.34 -0.41,0.73 -0.44,1.18 -0.02,0.45 0.1,0.93 0.38,1.43l2.6 -3.35zm-6.6 11.38c0.57,0.27 1.14,0.35 1.72,0.23 0.59,-0.12 1.06,-0.42 1.44,-0.9 0.33,-0.43 0.5,-0.91 0.48,-1.41 -0.01,-0.52 -0.24,-1.08 -0.7,-1.7l-2.94 3.78zm19.46 -11.35c0.54,1.66 0.83,3.44 0.83,5.28 0,9.33 -7.49,16.9 -16.79,17.03l7.04 4.84 12.69 0 0 -24.51 -3.77 -2.64zm-32.19 11.14c-0.67,-1.83 -1.04,-3.8 -1.04,-5.86 0,-9.21 7.31,-16.71 16.45,-17.02l-14.88 -10.41 -3.88 5.37 -4.85 6.72 0 0 -7.51 10.4 7.51 5.16 4.85 3.34 3.35 2.3zm15.99 -19.78c1.92,0 3.75,0.39 5.41,1.09l4.78 3.34c2.31,2.49 3.73,5.82 3.73,9.49 0,7.69 -6.23,13.92 -13.92,13.92 -2.63,0 -5.08,-0.73 -7.18,-2l-1.36 -0.93c-3.27,-2.55 -5.38,-6.52 -5.38,-10.99 0,-7.69 6.24,-13.92 13.92,-13.92z"/>
  </g>
 </g>
</svg>
