<?xml version="1.0" encoding="UTF-8"?>
<!DOCTYPE svg PUBLIC "-//W3C//DTD SVG 1.1//EN" "http://www.w3.org/Graphics/SVG/1.1/DTD/svg11.dtd">
<!-- Creator: CorelDRAW 2020 (64-Bit) -->
<svg xmlns="http://www.w3.org/2000/svg" xml:space="preserve" width="118px" height="118px" version="1.1" style="shape-rendering:geometricPrecision; text-rendering:geometricPrecision; image-rendering:optimizeQuality; fill-rule:evenodd; clip-rule:evenodd"
viewBox="0 0 118 118"
 xmlns:xlink="http://www.w3.org/1999/xlink"
 xmlns:xodm="http://www.corel.com/coreldraw/odm/2003">
 <defs>
  <style type="text/css">
   <![CDATA[
    .fil0 {fill:white}
    .fil5 {fill:#1976D2;fill-rule:nonzero}
    .fil4 {fill:#4CAF50;fill-rule:nonzero}
    .fil1 {fill:gray;fill-rule:nonzero}
    .fil3 {fill:#FF3D00;fill-rule:nonzero}
    .fil2 {fill:#FFC107;fill-rule:nonzero}
   ]]>
  </style>
 </defs>
 <g id="Layer_x0020_1">
  <metadata id="CorelCorpID_0Corel-Layer"/>
  <circle class="fil0" cx="58.06" cy="59.94" r="56.14"/>
  <path class="fil1" d="M58.06 0.94c16.29,0 31.04,6.61 41.71,17.29 10.68,10.67 17.29,25.42 17.29,41.71 0,16.3 -6.61,31.05 -17.29,41.72 -10.67,10.68 -25.42,17.28 -41.71,17.28 -16.3,0 -31.05,-6.6 -41.72,-17.28 -10.68,-10.67 -17.28,-25.42 -17.28,-41.72 0,-16.29 6.6,-31.04 17.28,-41.71 10.67,-10.68 25.42,-17.29 41.72,-17.29zm38.87 20.13c-9.95,-9.95 -23.69,-16.1 -38.87,-16.1 -15.19,0 -28.93,6.15 -38.88,16.1 -9.95,9.95 -16.1,23.69 -16.1,38.87 0,15.19 6.15,28.93 16.1,38.88 9.95,9.95 23.69,16.1 38.88,16.1 15.18,0 28.92,-6.15 38.87,-16.1 9.95,-9.95 16.1,-23.69 16.1,-38.88 0,-15.18 -6.15,-28.92 -16.1,-38.87z"/>
  <g id="_2730352108416">
   <path class="fil2" d="M98.98 51.01l-3.28 0 0 -0.16 -36.7 0 0 16.3 23.04 0c-3.36,9.5 -12.39,16.31 -23.04,16.31 -13.51,0 -24.46,-10.95 -24.46,-24.46 0,-13.51 10.95,-24.46 24.46,-24.46 6.24,0 11.91,2.35 16.23,6.19l11.53 -11.53c-7.28,-6.79 -17.02,-10.97 -27.76,-10.97 -22.52,0 -40.77,18.25 -40.77,40.77 0,22.52 18.25,40.77 40.77,40.77 22.52,0 40.77,-18.25 40.77,-40.77 0,-2.73 -0.28,-5.4 -0.79,-7.99z"/>
   <path class="fil3" d="M22.93 40.02l13.39 9.83c3.63,-8.98 12.41,-15.31 22.68,-15.31 6.24,0 11.91,2.35 16.23,6.19l11.53 -11.53c-7.28,-6.79 -17.02,-10.97 -27.76,-10.97 -15.66,0 -29.24,8.84 -36.07,21.79z"/>
   <path class="fil4" d="M59 99.77c10.53,0 20.1,-4.03 27.34,-10.58l-12.62 -10.68c-4.1,3.1 -9.18,4.95 -14.72,4.95 -10.61,0 -19.61,-6.76 -23,-16.2l-13.3 10.25c6.75,13.2 20.45,22.26 36.3,22.26z"/>
   <path class="fil5" d="M98.98 51.01l-3.28 0 0 -0.16 -36.7 0 0 16.3 23.04 0c-1.61,4.57 -4.54,8.5 -8.33,11.36 0,0 0.01,0 0.01,0l12.62 10.68c-0.9,0.81 13.43,-9.8 13.43,-30.19 0,-2.73 -0.28,-5.4 -0.79,-7.99z"/>
  </g>
 </g>
</svg>
