<?xml version="1.0" encoding="UTF-8"?>
<!DOCTYPE svg PUBLIC "-//W3C//DTD SVG 1.1//EN" "http://www.w3.org/Graphics/SVG/1.1/DTD/svg11.dtd">
<!-- Creator: CorelDRAW 2020 (64-Bit) -->
<svg xmlns="http://www.w3.org/2000/svg" xml:space="preserve" width="118px" height="118px" version="1.1" style="shape-rendering:geometricPrecision; text-rendering:geometricPrecision; image-rendering:optimizeQuality; fill-rule:evenodd; clip-rule:evenodd"
viewBox="0 0 118 118"
 xmlns:xlink="http://www.w3.org/1999/xlink"
 xmlns:xodm="http://www.corel.com/coreldraw/odm/2003">
 <defs>
  <style type="text/css">
   <![CDATA[
    .fil0 {fill:#6666CC;fill-rule:nonzero}
   ]]>
  </style>
 </defs>
 <g id="Layer_x0020_1">
  <metadata id="CorelCorpID_0Corel-Layer"/>
  <path class="fil0" d="M58.06 0.94c-32.59,0 -59,26.42 -59,59 0,32.59 26.42,59 59,59 32.58,0 59,-26.42 59,-59 0,-32.58 -26.42,-59 -59,-59zm7.37 81.13c0,4.07 -3.3,7.38 -7.37,7.38 -4.08,0 -7.38,-3.31 -7.38,-7.38l0 -22.13c0,-4.07 3.3,-7.37 7.38,-7.37 4.07,0 7.37,3.3 7.37,7.37l0 22.13zm-7.37 -36.87c-4.08,0 -7.38,-3.31 -7.38,-7.38 0,-4.07 3.3,-7.38 7.38,-7.38 4.07,0 7.37,3.31 7.37,7.38 0,4.07 -3.3,7.38 -7.37,7.38z"/>
 </g>
</svg>
