<?xml version="1.0" encoding="UTF-8"?>
<!DOCTYPE svg PUBLIC "-//W3C//DTD SVG 1.1//EN" "http://www.w3.org/Graphics/SVG/1.1/DTD/svg11.dtd">
<!-- Creator: CorelDRAW 2020 (64-Bit) -->
<svg xmlns="http://www.w3.org/2000/svg" xml:space="preserve" width="1181px" height="1181px" version="1.1" style="shape-rendering:geometricPrecision; text-rendering:geometricPrecision; image-rendering:optimizeQuality; fill-rule:evenodd; clip-rule:evenodd"
viewBox="0 0 1181 1181"
 xmlns:xlink="http://www.w3.org/1999/xlink"
 xmlns:xodm="http://www.corel.com/coreldraw/odm/2003">
 <defs>
  <style type="text/css">
   <![CDATA[
    .fil0 {fill:#96989A;fill-rule:nonzero}
   ]]>
  </style>
 </defs>
 <g id="Layer_x0020_1">
  <metadata id="CorelCorpID_0Corel-Layer"/>
  <path class="fil0" d="M1151.72 1042.34l-293.52 -293.87c131.68,-185.03 115.07,-443.07 -50.79,-609.14 -184.9,-185.16 -484.23,-185.16 -669.18,0 -184.9,185.17 -184.9,484.85 0,669.95 165.86,166.07 423.61,182.67 608.44,50.79l293.52 293.87c78.61,78.68 194.93,-28.16 111.54,-111.61l-0.01 0.01zm-901.75 -344.8c-123.1,-123.31 -123.1,-323.07 0,-446.38 123.1,-123.3 322.66,-123.3 445.83,0 123.1,123.31 123.1,323.07 0,446.38 -123.17,123.23 -322.74,123.23 -445.83,0z"/>
 </g>
</svg>
