<?xml version="1.0" encoding="UTF-8"?>
<!DOCTYPE svg PUBLIC "-//W3C//DTD SVG 1.1//EN" "http://www.w3.org/Graphics/SVG/1.1/DTD/svg11.dtd">
<!-- Creator: CorelDRAW 2020 (64-Bit) -->
<svg xmlns="http://www.w3.org/2000/svg" xml:space="preserve" width="118px" height="118px" version="1.1" style="shape-rendering:geometricPrecision; text-rendering:geometricPrecision; image-rendering:optimizeQuality; fill-rule:evenodd; clip-rule:evenodd"
viewBox="0 0 118 118"
 xmlns:xlink="http://www.w3.org/1999/xlink"
 xmlns:xodm="http://www.corel.com/coreldraw/odm/2003">
 <defs>
  <style type="text/css">
   <![CDATA[
    .fil0 {fill:#81366C}
    .fil1 {fill:white;fill-rule:nonzero}
   ]]>
  </style>
 </defs>
 <g id="Layer_x0020_1">
  <metadata id="CorelCorpID_0Corel-Layer"/>
  <g id="_2030477255232">
   <circle class="fil0" cx="58.06" cy="59.94" r="59"/>
   <path class="fil1" d="M77.43 52.07c2.01,0 3.64,-1.63 3.64,-3.64 0,-2.01 -1.63,-3.64 -3.64,-3.64 -2.01,0 -3.64,1.63 -3.64,3.64 0,2.01 1.63,3.64 3.64,3.64zm-27.9 1.97c-0.16,0.41 -1.34,3.75 -4.21,7.21l0 -14.8 -7.62 1.5 0 26.84 7.62 0 0 -8.29c2.21,3.31 3.3,8.29 3.3,8.29l9.13 0c-0.9,-3.75 -4.85,-10.67 -4.85,-10.67 3.55,-4.5 5.1,-9.29 5.35,-10.08l-8.72 0zm20.04 -0.28c-6.83,0.22 -10.29,3.28 -10.29,9.37l0 11.66 7.45 0 0 -9.51c0,-3.65 0.47,-5.21 4.8,-5.36l0 -6.06c-0.73,-0.15 -1.96,-0.1 -1.96,-0.1zm-44.65 3.23c-0.93,-0.06 -3.09,-0.2 -3.09,-2.14 0,-2.35 3.11,-2.35 4.27,-2.35 2.06,0 4.71,0.6 6.61,1.17 0,0 1.06,0.38 1.96,0.76l0.09 0.02 0 -6.43 -0.12 -0.03c-2.24,-0.79 -4.84,-1.54 -9.67,-1.54 -8.33,0 -11.28,4.85 -11.28,9 0,2.4 1.03,8.04 10.56,8.69 0.81,0.05 2.96,0.17 2.96,2.18 0,1.66 -1.76,2.64 -4.71,2.64 -3.24,0 -6.38,-0.83 -8.29,-1.61l0 6.62c2.86,0.75 6.08,1.13 9.85,1.13 8.14,0 11.79,-4.59 11.79,-9.14 0,-5.16 -4.08,-8.51 -10.93,-8.97zm48.81 17.8l7.39 0 0 -20.73 -7.39 0 0 20.73zm21.3 -27.02l0 27.02 7.39 0 0 -28.34 -7.39 1.32zm-10.78 0l7.38 -1.32 0 28.34 -7.38 0 0 -27.02z"/>
  </g>
 </g>
</svg>
