<?xml version="1.0" encoding="UTF-8"?>
<!DOCTYPE svg PUBLIC "-//W3C//DTD SVG 1.1//EN" "http://www.w3.org/Graphics/SVG/1.1/DTD/svg11.dtd">
<!-- Creator: CorelDRAW 2020 (64-Bit) -->
<svg xmlns="http://www.w3.org/2000/svg" xml:space="preserve" width="118px" height="113px" version="1.1" style="shape-rendering:geometricPrecision; text-rendering:geometricPrecision; image-rendering:optimizeQuality; fill-rule:evenodd; clip-rule:evenodd"
viewBox="0 0 118 112.44"
 xmlns:xlink="http://www.w3.org/1999/xlink"
 xmlns:xodm="http://www.corel.com/coreldraw/odm/2003">
 <defs>
  <style type="text/css">
   <![CDATA[
    .fil0 {fill:#FF9933;fill-rule:nonzero}
   ]]>
  </style>
 </defs>
 <g id="Layer_x0020_1">
  <metadata id="CorelCorpID_0Corel-Layer"/>
  <path class="fil0" d="M115.78 47.57l-25.81 25.15 6.09 35.52 0 0c0.28,1.58 -0.38,3.18 -1.67,4.12 -1.3,0.94 -3.02,1.07 -4.44,0.32l-31.9 -16.77 -31.89 16.77 0 0c-1.42,0.75 -3.14,0.62 -4.44,-0.32 -1.3,-0.94 -1.95,-2.54 -1.67,-4.12l6.08 -35.52 -25.8 -25.15c-1.15,-1.12 -1.57,-2.8 -1.07,-4.32 0.5,-1.53 1.82,-2.64 3.41,-2.87l35.66 -5.19 15.95 -32.31c0.79,-1.33 2.22,-2.15 3.77,-2.15 1.56,0 3,0.82 3.78,2.15l15.95 32.31 35.66 5.19 0.01 0c1.58,0.23 2.9,1.34 3.4,2.87 0.5,1.52 0.08,3.2 -1.07,4.32l0 0z"/>
 </g>
</svg>
