<?xml version="1.0" encoding="UTF-8"?>
<!DOCTYPE svg PUBLIC "-//W3C//DTD SVG 1.1//EN" "http://www.w3.org/Graphics/SVG/1.1/DTD/svg11.dtd">
<!-- Creator: CorelDRAW 2020 (64-Bit) -->
<svg xmlns="http://www.w3.org/2000/svg" xml:space="preserve" width="118px" height="118px" version="1.1" style="shape-rendering:geometricPrecision; text-rendering:geometricPrecision; image-rendering:optimizeQuality; fill-rule:evenodd; clip-rule:evenodd"
viewBox="0 0 118 118"
 xmlns:xlink="http://www.w3.org/1999/xlink"
 xmlns:xodm="http://www.corel.com/coreldraw/odm/2003">
 <defs>
  <style type="text/css">
   <![CDATA[
    .fil0 {fill:white}
    .fil1 {fill:red;fill-rule:nonzero}
   ]]>
  </style>
 </defs>
 <g id="Layer_x0020_1">
  <metadata id="CorelCorpID_0Corel-Layer"/>
  <g id="_2470323523408">
   <circle class="fil0" cx="58.06" cy="59.94" r="49.45"/>
   <path class="fil1" d="M49.37 71.67c1.6,1.19 3.2,2.38 4.8,3.57 -1.67,1.65 -3.35,3.3 -5.01,4.95 -0.16,0.16 -0.3,0.32 -0.45,0.48l0.07 -1.09c0.2,-2.63 0.38,-5.27 0.59,-7.91zm13.13 -23.25c-8.12,5.12 -16.23,10.26 -24.37,15.37 -0.16,0.11 -0.34,0.19 -0.52,0.27 1.06,3.4 2.12,6.8 3.18,10.2 0.76,2.4 1.55,4.79 2.26,7.19 0.3,1 0.81,1.53 1.9,1.34 0.29,-4.07 0.59,-8.13 0.9,-12.2 0.02,-0.48 0.09,-0.96 0.15,-1.43 -0.46,-0.27 -0.27,-0.77 -0.11,-0.94 0.28,-0.29 0.57,-0.58 0.85,-0.87 0.1,-0.1 0.21,-0.19 0.29,-0.28 0.15,-0.15 0.29,-0.3 0.42,-0.44 0.68,-0.63 1.35,-1.26 2.02,-1.89 0.39,-0.36 0.76,-0.73 1.16,-1.09 1.04,-0.97 2.08,-1.95 3.14,-2.91 2.7,-2.45 5.45,-4.84 8.15,-7.28 3.44,-3.12 6.88,-6.25 10.29,-9.4 0.25,-0.35 0.41,-0.79 0.63,-1.18 -0.61,0.08 -1.33,-0.02 -1.81,0.27 -2.87,1.71 -5.7,3.49 -8.53,5.27l0 0 0 0zm54.56 11.52c0,32.59 -26.42,59 -59.01,59 -32.59,0 -59,-26.41 -59,-59 0,-32.58 26.41,-59 59,-59 32.59,0 59.01,26.42 59.01,59zm-32.66 -23.5c-0.03,-0.23 -0.05,-0.46 -0.1,-0.68 -0.52,-2.5 -1.89,-3.26 -4.35,-2.42 -0.36,0.12 -0.72,0.2 -1.09,0.3 -1.37,0.57 -2.73,1.17 -4.12,1.69 -2.3,0.87 -4.63,1.68 -6.95,2.52 -1.42,0.59 -2.83,1.21 -4.26,1.77 -3.58,1.4 -7.17,2.77 -10.76,4.16 -7.38,2.85 -14.77,5.69 -22.16,8.54 -1.66,0.64 -3.33,1.24 -4.98,1.93 -1.44,0.59 -2.91,1.17 -4.24,1.97 -0.59,0.36 -1.24,1.28 -1.17,1.87 0.06,0.6 0.97,1.11 1.53,1.64 0.1,0.1 0.28,0.13 0.42,0.18 3.92,1.21 7.83,2.42 11.75,3.63 -0.02,0.41 0.02,0.82 0.15,1.23l1.43 4.57 1.87 6c0.22,0.69 0.44,1.38 0.65,2.06 0.54,1.67 1.09,3.39 1.59,5.08 1.1,3.66 4.06,3.94 4.94,3.94 0.14,0 0.27,-0.01 0.41,-0.01 0.13,0 0.27,0.01 0.41,0.01 2.26,0 3.71,-1.25 4.57,-1.99 0.16,-0.14 0.32,-0.27 0.43,-0.35 0.18,-0.14 0.34,-0.28 0.49,-0.45 0.11,-0.11 0.21,-0.23 0.32,-0.35 0.19,-0.2 0.36,-0.39 0.51,-0.54 1.31,-1.3 2.62,-2.6 3.94,-3.9l1.56 -1.54c0.22,0.16 0.44,0.31 0.66,0.46 3.55,2.65 7.1,5.31 10.66,7.95 2.66,1.96 4.52,1.45 5.81,-1.55 0.54,-2.53 1.09,-5.07 1.63,-7.6 0.5,-2.53 0.99,-5.05 1.49,-7.57 0.31,-1.39 0.63,-2.78 0.94,-4.17 0.83,-3.9 1.66,-7.81 2.49,-11.71 0.27,-1.25 0.53,-2.5 0.8,-3.74 0.06,-0.3 0.14,-0.6 0.2,-0.89 0.85,-4.02 1.69,-8.03 2.53,-12.04l0 0 0 0z"/>
  </g>
 </g>
</svg>
