<?xml version="1.0" encoding="UTF-8"?>
<!DOCTYPE svg PUBLIC "-//W3C//DTD SVG 1.1//EN" "http://www.w3.org/Graphics/SVG/1.1/DTD/svg11.dtd">
<!-- Creator: CorelDRAW 2020 (64-Bit) -->
<svg xmlns="http://www.w3.org/2000/svg" xml:space="preserve" width="118px" height="118px" version="1.1" style="shape-rendering:geometricPrecision; text-rendering:geometricPrecision; image-rendering:optimizeQuality; fill-rule:evenodd; clip-rule:evenodd"
viewBox="0 0 118 118"
 xmlns:xlink="http://www.w3.org/1999/xlink"
 xmlns:xodm="http://www.corel.com/coreldraw/odm/2003">
 <defs>
  <style type="text/css">
   <![CDATA[
    .fil0 {fill:#FF6600}
    .fil1 {fill:white;fill-rule:nonzero}
   ]]>
  </style>
 </defs>
 <g id="Layer_x0020_1">
  <metadata id="CorelCorpID_0Corel-Layer"/>
  <g id="_2281262042096">
   <circle class="fil0" cx="58.06" cy="59.94" r="59"/>
   <g>
    <path class="fil1" d="M63.22 55.75c6.34,4.37 11.23,10.85 13.41,18.58l0.5 1.77c0.51,1.8 0.42,3.66 -0.23,5.37l19.49 0c0.91,0 1.8,-0.45 2.36,-1.18 0.56,-0.74 0.73,-1.68 0.47,-2.57l-0.41 -1.5c-2.04,-7.08 -7.17,-12.71 -13.69,-15.48 2.39,-2.42 3.84,-5.69 3.84,-9.32 0,-7.34 -5.93,-13.27 -13.27,-13.27 -4.39,0 -8.29,2.15 -10.7,5.46 0.17,0.94 0.23,1.88 0.23,2.86 0,3.24 -0.76,6.34 -2.09,9.08 0,0.06 0.03,0.15 0.09,0.21l0 -0.01z"/>
    <path class="fil1" d="M19.72 81.47l48.9 0c0.92,0 1.79,-0.43 2.35,-1.17 0.55,-0.74 0.73,-1.69 0.48,-2.58l-0.5 -1.77c-2.42,-8.51 -8.74,-15.16 -16.67,-18.28 3.07,-2.78 5.03,-6.74 5.03,-11.19 0,-8.35 -6.79,-15.14 -15.14,-15.14 -8.35,0 -15.15,6.79 -15.15,15.14 0,4.45 1.97,8.42 5.03,11.19 -7.92,3.12 -14.24,9.77 -16.66,18.29l-0.5 1.76c-0.25,0.89 -0.08,1.84 0.48,2.58 0.56,0.74 1.43,1.17 2.35,1.17l0 0z"/>
   </g>
  </g>
 </g>
</svg>
