<?xml version="1.0" encoding="UTF-8"?>
<!DOCTYPE svg PUBLIC "-//W3C//DTD SVG 1.1//EN" "http://www.w3.org/Graphics/SVG/1.1/DTD/svg11.dtd">
<!-- Creator: CorelDRAW 2020 (64-Bit) -->
<svg xmlns="http://www.w3.org/2000/svg" xml:space="preserve" width="118px" height="118px" version="1.1" style="shape-rendering:geometricPrecision; text-rendering:geometricPrecision; image-rendering:optimizeQuality; fill-rule:evenodd; clip-rule:evenodd"
viewBox="0 0 118 118"
 xmlns:xlink="http://www.w3.org/1999/xlink"
 xmlns:xodm="http://www.corel.com/coreldraw/odm/2003">
 <defs>
  <style type="text/css">
   <![CDATA[
    .fil0 {fill:#6666CC}
   ]]>
  </style>
 </defs>
 <g id="Layer_x0020_1">
  <metadata id="CorelCorpID_0Corel-Layer"/>
  <path class="fil0" d="M58.06 0.94c32.58,0 59,26.42 59,59 0,32.59 -26.42,59 -59,59 -32.59,0 -59,-26.41 -59,-59 0,-32.58 26.41,-59 59,-59zm26.06 32.94c2.08,2.09 2.08,5.46 0,7.55l-18.52 18.51 18.52 18.52c2.08,2.08 2.08,5.46 0,7.54 -2.09,2.09 -5.46,2.09 -7.55,0l-18.51 -18.51 -18.52 18.51c-2.08,2.09 -5.46,2.09 -7.54,0 -2.09,-2.08 -2.09,-5.46 0,-7.54l18.51 -18.52 -18.51 -18.51c-2.09,-2.09 -2.09,-5.46 0,-7.55 2.08,-2.08 5.46,-2.08 7.54,0l18.52 18.52 18.51 -18.52c2.09,-2.08 5.46,-2.08 7.55,0z"/>
 </g>
</svg>
